<mxfile host="Electron" agent="Mozilla/5.0 (Windows NT 10.0; Win64; x64) AppleWebKit/537.36 (KHTML, like Gecko) draw.io/25.0.2 Chrome/128.0.6613.186 Electron/32.2.5 Safari/537.36" version="25.0.2" pages="3">
  <diagram name="Template" id="sCNVFHW_zc1JGiIKYJ8d">
    <mxGraphModel dx="1114" dy="656" grid="1" gridSize="10" guides="1" tooltips="1" connect="1" arrows="1" fold="1" page="1" pageScale="1" pageWidth="827" pageHeight="1169" math="0" shadow="0">
      <root>
        <mxCell id="0" />
        <mxCell id="1" parent="0" />
        <mxCell id="EMZnvqDmzWofthWg7twO-1" value="x" style="shape=table;startSize=30;container=1;collapsible=1;childLayout=tableLayout;fixedRows=1;rowLines=0;fontStyle=1;align=center;resizeLast=1;" parent="1" vertex="1">
          <mxGeometry x="10" y="20" width="150" height="70" as="geometry" />
        </mxCell>
        <mxCell id="EMZnvqDmzWofthWg7twO-2" value="" style="shape=partialRectangle;collapsible=0;dropTarget=0;pointerEvents=0;fillColor=none;points=[[0,0.5],[1,0.5]];portConstraint=eastwest;top=0;left=0;right=0;bottom=1;" parent="EMZnvqDmzWofthWg7twO-1" vertex="1">
          <mxGeometry y="30" width="150" height="20" as="geometry" />
        </mxCell>
        <mxCell id="EMZnvqDmzWofthWg7twO-3" value="PK" style="shape=partialRectangle;overflow=hidden;connectable=0;fillColor=none;top=0;left=0;bottom=0;right=0;fontStyle=1;" parent="EMZnvqDmzWofthWg7twO-2" vertex="1">
          <mxGeometry width="30" height="20" as="geometry">
            <mxRectangle width="30" height="20" as="alternateBounds" />
          </mxGeometry>
        </mxCell>
        <mxCell id="EMZnvqDmzWofthWg7twO-4" value="" style="shape=partialRectangle;overflow=hidden;connectable=0;fillColor=none;top=0;left=0;bottom=0;right=0;align=left;spacingLeft=6;fontStyle=5;" parent="EMZnvqDmzWofthWg7twO-2" vertex="1">
          <mxGeometry x="30" width="120" height="20" as="geometry">
            <mxRectangle width="120" height="20" as="alternateBounds" />
          </mxGeometry>
        </mxCell>
        <mxCell id="EMZnvqDmzWofthWg7twO-5" value="" style="shape=partialRectangle;collapsible=0;dropTarget=0;pointerEvents=0;fillColor=none;points=[[0,0.5],[1,0.5]];portConstraint=eastwest;top=0;left=0;right=0;bottom=0;" parent="EMZnvqDmzWofthWg7twO-1" vertex="1">
          <mxGeometry y="50" width="150" height="20" as="geometry" />
        </mxCell>
        <mxCell id="EMZnvqDmzWofthWg7twO-6" value="" style="shape=partialRectangle;overflow=hidden;connectable=0;fillColor=none;top=0;left=0;bottom=0;right=0;" parent="EMZnvqDmzWofthWg7twO-5" vertex="1">
          <mxGeometry width="30" height="20" as="geometry">
            <mxRectangle width="30" height="20" as="alternateBounds" />
          </mxGeometry>
        </mxCell>
        <mxCell id="EMZnvqDmzWofthWg7twO-7" value="" style="shape=partialRectangle;overflow=hidden;connectable=0;fillColor=none;top=0;left=0;bottom=0;right=0;align=left;spacingLeft=6;" parent="EMZnvqDmzWofthWg7twO-5" vertex="1">
          <mxGeometry x="30" width="120" height="20" as="geometry">
            <mxRectangle width="120" height="20" as="alternateBounds" />
          </mxGeometry>
        </mxCell>
        <mxCell id="EMZnvqDmzWofthWg7twO-8" value="x_vs_y" style="shape=table;startSize=30;container=1;collapsible=1;childLayout=tableLayout;fixedRows=1;rowLines=0;fontStyle=1;align=center;resizeLast=1;" parent="1" vertex="1">
          <mxGeometry x="180" y="20" width="170" height="90" as="geometry" />
        </mxCell>
        <mxCell id="EMZnvqDmzWofthWg7twO-9" value="" style="shape=tableRow;horizontal=0;startSize=0;swimlaneHead=0;swimlaneBody=0;fillColor=none;collapsible=0;dropTarget=0;points=[[0,0.5],[1,0.5]];portConstraint=eastwest;top=0;left=0;right=0;bottom=0;" parent="EMZnvqDmzWofthWg7twO-8" vertex="1">
          <mxGeometry y="30" width="170" height="20" as="geometry" />
        </mxCell>
        <mxCell id="EMZnvqDmzWofthWg7twO-10" value="PK,FK1" style="shape=partialRectangle;connectable=0;fillColor=none;top=0;left=0;bottom=0;right=0;fontStyle=1;overflow=hidden;" parent="EMZnvqDmzWofthWg7twO-9" vertex="1">
          <mxGeometry width="50" height="20" as="geometry">
            <mxRectangle width="50" height="20" as="alternateBounds" />
          </mxGeometry>
        </mxCell>
        <mxCell id="EMZnvqDmzWofthWg7twO-11" value="" style="shape=partialRectangle;connectable=0;fillColor=none;top=0;left=0;bottom=0;right=0;align=left;spacingLeft=6;fontStyle=5;overflow=hidden;" parent="EMZnvqDmzWofthWg7twO-9" vertex="1">
          <mxGeometry x="50" width="120" height="20" as="geometry">
            <mxRectangle width="120" height="20" as="alternateBounds" />
          </mxGeometry>
        </mxCell>
        <mxCell id="EMZnvqDmzWofthWg7twO-12" value="" style="shape=tableRow;horizontal=0;startSize=0;swimlaneHead=0;swimlaneBody=0;fillColor=none;collapsible=0;dropTarget=0;points=[[0,0.5],[1,0.5]];portConstraint=eastwest;top=0;left=0;right=0;bottom=1;" parent="EMZnvqDmzWofthWg7twO-8" vertex="1">
          <mxGeometry y="50" width="170" height="20" as="geometry" />
        </mxCell>
        <mxCell id="EMZnvqDmzWofthWg7twO-13" value="PK,FK2" style="shape=partialRectangle;connectable=0;fillColor=none;top=0;left=0;bottom=0;right=0;fontStyle=1;overflow=hidden;" parent="EMZnvqDmzWofthWg7twO-12" vertex="1">
          <mxGeometry width="50" height="20" as="geometry">
            <mxRectangle width="50" height="20" as="alternateBounds" />
          </mxGeometry>
        </mxCell>
        <mxCell id="EMZnvqDmzWofthWg7twO-14" value="" style="shape=partialRectangle;connectable=0;fillColor=none;top=0;left=0;bottom=0;right=0;align=left;spacingLeft=6;fontStyle=5;overflow=hidden;" parent="EMZnvqDmzWofthWg7twO-12" vertex="1">
          <mxGeometry x="50" width="120" height="20" as="geometry">
            <mxRectangle width="120" height="20" as="alternateBounds" />
          </mxGeometry>
        </mxCell>
        <mxCell id="EMZnvqDmzWofthWg7twO-15" value="" style="shape=tableRow;horizontal=0;startSize=0;swimlaneHead=0;swimlaneBody=0;fillColor=none;collapsible=0;dropTarget=0;points=[[0,0.5],[1,0.5]];portConstraint=eastwest;top=0;left=0;right=0;bottom=0;" parent="EMZnvqDmzWofthWg7twO-8" vertex="1">
          <mxGeometry y="70" width="170" height="20" as="geometry" />
        </mxCell>
        <mxCell id="EMZnvqDmzWofthWg7twO-16" value="" style="shape=partialRectangle;connectable=0;fillColor=none;top=0;left=0;bottom=0;right=0;editable=1;overflow=hidden;" parent="EMZnvqDmzWofthWg7twO-15" vertex="1">
          <mxGeometry width="50" height="20" as="geometry">
            <mxRectangle width="50" height="20" as="alternateBounds" />
          </mxGeometry>
        </mxCell>
        <mxCell id="EMZnvqDmzWofthWg7twO-17" value="" style="shape=partialRectangle;connectable=0;fillColor=none;top=0;left=0;bottom=0;right=0;align=left;spacingLeft=6;overflow=hidden;" parent="EMZnvqDmzWofthWg7twO-15" vertex="1">
          <mxGeometry x="50" width="120" height="20" as="geometry">
            <mxRectangle width="120" height="20" as="alternateBounds" />
          </mxGeometry>
        </mxCell>
        <mxCell id="EMZnvqDmzWofthWg7twO-18" value="a_vs_b_vs_c" style="shape=table;startSize=30;container=1;collapsible=1;childLayout=tableLayout;fixedRows=1;rowLines=0;fontStyle=1;align=center;resizeLast=1;" parent="1" vertex="1">
          <mxGeometry x="380" y="20" width="170" height="110" as="geometry" />
        </mxCell>
        <mxCell id="EMZnvqDmzWofthWg7twO-19" value="" style="shape=tableRow;horizontal=0;startSize=0;swimlaneHead=0;swimlaneBody=0;fillColor=none;collapsible=0;dropTarget=0;points=[[0,0.5],[1,0.5]];portConstraint=eastwest;top=0;left=0;right=0;bottom=0;" parent="EMZnvqDmzWofthWg7twO-18" vertex="1">
          <mxGeometry y="30" width="170" height="20" as="geometry" />
        </mxCell>
        <mxCell id="EMZnvqDmzWofthWg7twO-20" value="PK,FK1" style="shape=partialRectangle;connectable=0;fillColor=none;top=0;left=0;bottom=0;right=0;fontStyle=1;overflow=hidden;" parent="EMZnvqDmzWofthWg7twO-19" vertex="1">
          <mxGeometry width="50" height="20" as="geometry">
            <mxRectangle width="50" height="20" as="alternateBounds" />
          </mxGeometry>
        </mxCell>
        <mxCell id="EMZnvqDmzWofthWg7twO-21" value="" style="shape=partialRectangle;connectable=0;fillColor=none;top=0;left=0;bottom=0;right=0;align=left;spacingLeft=6;fontStyle=5;overflow=hidden;" parent="EMZnvqDmzWofthWg7twO-19" vertex="1">
          <mxGeometry x="50" width="120" height="20" as="geometry">
            <mxRectangle width="120" height="20" as="alternateBounds" />
          </mxGeometry>
        </mxCell>
        <mxCell id="EMZnvqDmzWofthWg7twO-22" value="" style="shape=tableRow;horizontal=0;startSize=0;swimlaneHead=0;swimlaneBody=0;fillColor=none;collapsible=0;dropTarget=0;points=[[0,0.5],[1,0.5]];portConstraint=eastwest;top=0;left=0;right=0;bottom=0;" parent="EMZnvqDmzWofthWg7twO-18" vertex="1">
          <mxGeometry y="50" width="170" height="20" as="geometry" />
        </mxCell>
        <mxCell id="EMZnvqDmzWofthWg7twO-23" value="PK,FK2" style="shape=partialRectangle;connectable=0;fillColor=none;top=0;left=0;bottom=0;right=0;fontStyle=1;overflow=hidden;" parent="EMZnvqDmzWofthWg7twO-22" vertex="1">
          <mxGeometry width="50" height="20" as="geometry">
            <mxRectangle width="50" height="20" as="alternateBounds" />
          </mxGeometry>
        </mxCell>
        <mxCell id="EMZnvqDmzWofthWg7twO-24" value="" style="shape=partialRectangle;connectable=0;fillColor=none;top=0;left=0;bottom=0;right=0;align=left;spacingLeft=6;fontStyle=5;overflow=hidden;" parent="EMZnvqDmzWofthWg7twO-22" vertex="1">
          <mxGeometry x="50" width="120" height="20" as="geometry">
            <mxRectangle width="120" height="20" as="alternateBounds" />
          </mxGeometry>
        </mxCell>
        <mxCell id="EMZnvqDmzWofthWg7twO-25" value="" style="shape=tableRow;horizontal=0;startSize=0;swimlaneHead=0;swimlaneBody=0;fillColor=none;collapsible=0;dropTarget=0;points=[[0,0.5],[1,0.5]];portConstraint=eastwest;top=0;left=0;right=0;bottom=1;" parent="EMZnvqDmzWofthWg7twO-18" vertex="1">
          <mxGeometry y="70" width="170" height="20" as="geometry" />
        </mxCell>
        <mxCell id="EMZnvqDmzWofthWg7twO-26" value="PK,FK3" style="shape=partialRectangle;connectable=0;fillColor=none;top=0;left=0;bottom=0;right=0;fontStyle=1;overflow=hidden;" parent="EMZnvqDmzWofthWg7twO-25" vertex="1">
          <mxGeometry width="50" height="20" as="geometry">
            <mxRectangle width="50" height="20" as="alternateBounds" />
          </mxGeometry>
        </mxCell>
        <mxCell id="EMZnvqDmzWofthWg7twO-27" value="" style="shape=partialRectangle;connectable=0;fillColor=none;top=0;left=0;bottom=0;right=0;align=left;spacingLeft=6;fontStyle=5;overflow=hidden;" parent="EMZnvqDmzWofthWg7twO-25" vertex="1">
          <mxGeometry x="50" width="120" height="20" as="geometry">
            <mxRectangle width="120" height="20" as="alternateBounds" />
          </mxGeometry>
        </mxCell>
        <mxCell id="EMZnvqDmzWofthWg7twO-28" value="" style="shape=tableRow;horizontal=0;startSize=0;swimlaneHead=0;swimlaneBody=0;fillColor=none;collapsible=0;dropTarget=0;points=[[0,0.5],[1,0.5]];portConstraint=eastwest;top=0;left=0;right=0;bottom=0;" parent="EMZnvqDmzWofthWg7twO-18" vertex="1">
          <mxGeometry y="90" width="170" height="20" as="geometry" />
        </mxCell>
        <mxCell id="EMZnvqDmzWofthWg7twO-29" value="" style="shape=partialRectangle;connectable=0;fillColor=none;top=0;left=0;bottom=0;right=0;editable=1;overflow=hidden;" parent="EMZnvqDmzWofthWg7twO-28" vertex="1">
          <mxGeometry width="50" height="20" as="geometry">
            <mxRectangle width="50" height="20" as="alternateBounds" />
          </mxGeometry>
        </mxCell>
        <mxCell id="EMZnvqDmzWofthWg7twO-30" value="" style="shape=partialRectangle;connectable=0;fillColor=none;top=0;left=0;bottom=0;right=0;align=left;spacingLeft=6;overflow=hidden;" parent="EMZnvqDmzWofthWg7twO-28" vertex="1">
          <mxGeometry x="50" width="120" height="20" as="geometry">
            <mxRectangle width="120" height="20" as="alternateBounds" />
          </mxGeometry>
        </mxCell>
        <mxCell id="EMZnvqDmzWofthWg7twO-31" value="" style="fontSize=12;html=1;endArrow=ERmany;rounded=0;endSize=9;" parent="1" edge="1">
          <mxGeometry width="100" height="100" relative="1" as="geometry">
            <mxPoint x="420" y="240" as="sourcePoint" />
            <mxPoint x="490" y="170" as="targetPoint" />
          </mxGeometry>
        </mxCell>
        <mxCell id="EMZnvqDmzWofthWg7twO-32" value="Note" style="shape=note;size=20;whiteSpace=wrap;html=1;align=left;" parent="1" vertex="1">
          <mxGeometry x="580" y="170" width="170" height="60" as="geometry" />
        </mxCell>
        <mxCell id="EMZnvqDmzWofthWg7twO-33" value="" style="endArrow=none;dashed=1;html=1;rounded=0;" parent="1" edge="1">
          <mxGeometry width="50" height="50" relative="1" as="geometry">
            <mxPoint x="490" y="240" as="sourcePoint" />
            <mxPoint x="560" y="170" as="targetPoint" />
          </mxGeometry>
        </mxCell>
        <mxCell id="EMZnvqDmzWofthWg7twO-34" value="a_vs_b_vs_c_vs_d" style="shape=table;startSize=30;container=1;collapsible=1;childLayout=tableLayout;fixedRows=1;rowLines=0;fontStyle=1;align=center;resizeLast=1;" parent="1" vertex="1">
          <mxGeometry x="580" y="20" width="170" height="130" as="geometry" />
        </mxCell>
        <mxCell id="EMZnvqDmzWofthWg7twO-35" value="" style="shape=tableRow;horizontal=0;startSize=0;swimlaneHead=0;swimlaneBody=0;fillColor=none;collapsible=0;dropTarget=0;points=[[0,0.5],[1,0.5]];portConstraint=eastwest;top=0;left=0;right=0;bottom=0;" parent="EMZnvqDmzWofthWg7twO-34" vertex="1">
          <mxGeometry y="30" width="170" height="20" as="geometry" />
        </mxCell>
        <mxCell id="EMZnvqDmzWofthWg7twO-36" value="PK,FK1" style="shape=partialRectangle;connectable=0;fillColor=none;top=0;left=0;bottom=0;right=0;fontStyle=1;overflow=hidden;" parent="EMZnvqDmzWofthWg7twO-35" vertex="1">
          <mxGeometry width="50" height="20" as="geometry">
            <mxRectangle width="50" height="20" as="alternateBounds" />
          </mxGeometry>
        </mxCell>
        <mxCell id="EMZnvqDmzWofthWg7twO-37" value="" style="shape=partialRectangle;connectable=0;fillColor=none;top=0;left=0;bottom=0;right=0;align=left;spacingLeft=6;fontStyle=5;overflow=hidden;" parent="EMZnvqDmzWofthWg7twO-35" vertex="1">
          <mxGeometry x="50" width="120" height="20" as="geometry">
            <mxRectangle width="120" height="20" as="alternateBounds" />
          </mxGeometry>
        </mxCell>
        <mxCell id="EMZnvqDmzWofthWg7twO-38" value="" style="shape=tableRow;horizontal=0;startSize=0;swimlaneHead=0;swimlaneBody=0;fillColor=none;collapsible=0;dropTarget=0;points=[[0,0.5],[1,0.5]];portConstraint=eastwest;top=0;left=0;right=0;bottom=0;" parent="EMZnvqDmzWofthWg7twO-34" vertex="1">
          <mxGeometry y="50" width="170" height="20" as="geometry" />
        </mxCell>
        <mxCell id="EMZnvqDmzWofthWg7twO-39" value="PK,FK2" style="shape=partialRectangle;connectable=0;fillColor=none;top=0;left=0;bottom=0;right=0;fontStyle=1;overflow=hidden;" parent="EMZnvqDmzWofthWg7twO-38" vertex="1">
          <mxGeometry width="50" height="20" as="geometry">
            <mxRectangle width="50" height="20" as="alternateBounds" />
          </mxGeometry>
        </mxCell>
        <mxCell id="EMZnvqDmzWofthWg7twO-40" value="" style="shape=partialRectangle;connectable=0;fillColor=none;top=0;left=0;bottom=0;right=0;align=left;spacingLeft=6;fontStyle=5;overflow=hidden;" parent="EMZnvqDmzWofthWg7twO-38" vertex="1">
          <mxGeometry x="50" width="120" height="20" as="geometry">
            <mxRectangle width="120" height="20" as="alternateBounds" />
          </mxGeometry>
        </mxCell>
        <mxCell id="EMZnvqDmzWofthWg7twO-41" value="" style="shape=tableRow;horizontal=0;startSize=0;swimlaneHead=0;swimlaneBody=0;fillColor=none;collapsible=0;dropTarget=0;points=[[0,0.5],[1,0.5]];portConstraint=eastwest;top=0;left=0;right=0;bottom=0;" parent="EMZnvqDmzWofthWg7twO-34" vertex="1">
          <mxGeometry y="70" width="170" height="20" as="geometry" />
        </mxCell>
        <mxCell id="EMZnvqDmzWofthWg7twO-42" value="PK,FK3" style="shape=partialRectangle;connectable=0;fillColor=none;top=0;left=0;bottom=0;right=0;fontStyle=1;overflow=hidden;" parent="EMZnvqDmzWofthWg7twO-41" vertex="1">
          <mxGeometry width="50" height="20" as="geometry">
            <mxRectangle width="50" height="20" as="alternateBounds" />
          </mxGeometry>
        </mxCell>
        <mxCell id="EMZnvqDmzWofthWg7twO-43" value="" style="shape=partialRectangle;connectable=0;fillColor=none;top=0;left=0;bottom=0;right=0;align=left;spacingLeft=6;fontStyle=5;overflow=hidden;" parent="EMZnvqDmzWofthWg7twO-41" vertex="1">
          <mxGeometry x="50" width="120" height="20" as="geometry">
            <mxRectangle width="120" height="20" as="alternateBounds" />
          </mxGeometry>
        </mxCell>
        <mxCell id="EMZnvqDmzWofthWg7twO-44" value="" style="shape=tableRow;horizontal=0;startSize=0;swimlaneHead=0;swimlaneBody=0;fillColor=none;collapsible=0;dropTarget=0;points=[[0,0.5],[1,0.5]];portConstraint=eastwest;top=0;left=0;right=0;bottom=1;" parent="EMZnvqDmzWofthWg7twO-34" vertex="1">
          <mxGeometry y="90" width="170" height="20" as="geometry" />
        </mxCell>
        <mxCell id="EMZnvqDmzWofthWg7twO-45" value="PK,FK4" style="shape=partialRectangle;connectable=0;fillColor=none;top=0;left=0;bottom=0;right=0;fontStyle=1;overflow=hidden;" parent="EMZnvqDmzWofthWg7twO-44" vertex="1">
          <mxGeometry width="50" height="20" as="geometry">
            <mxRectangle width="50" height="20" as="alternateBounds" />
          </mxGeometry>
        </mxCell>
        <mxCell id="EMZnvqDmzWofthWg7twO-46" value="" style="shape=partialRectangle;connectable=0;fillColor=none;top=0;left=0;bottom=0;right=0;align=left;spacingLeft=6;fontStyle=5;overflow=hidden;" parent="EMZnvqDmzWofthWg7twO-44" vertex="1">
          <mxGeometry x="50" width="120" height="20" as="geometry">
            <mxRectangle width="120" height="20" as="alternateBounds" />
          </mxGeometry>
        </mxCell>
        <mxCell id="EMZnvqDmzWofthWg7twO-47" value="" style="shape=tableRow;horizontal=0;startSize=0;swimlaneHead=0;swimlaneBody=0;fillColor=none;collapsible=0;dropTarget=0;points=[[0,0.5],[1,0.5]];portConstraint=eastwest;top=0;left=0;right=0;bottom=0;" parent="EMZnvqDmzWofthWg7twO-34" vertex="1">
          <mxGeometry y="110" width="170" height="20" as="geometry" />
        </mxCell>
        <mxCell id="EMZnvqDmzWofthWg7twO-48" value="" style="shape=partialRectangle;connectable=0;fillColor=none;top=0;left=0;bottom=0;right=0;editable=1;overflow=hidden;" parent="EMZnvqDmzWofthWg7twO-47" vertex="1">
          <mxGeometry width="50" height="20" as="geometry">
            <mxRectangle width="50" height="20" as="alternateBounds" />
          </mxGeometry>
        </mxCell>
        <mxCell id="EMZnvqDmzWofthWg7twO-49" value="" style="shape=partialRectangle;connectable=0;fillColor=none;top=0;left=0;bottom=0;right=0;align=left;spacingLeft=6;overflow=hidden;" parent="EMZnvqDmzWofthWg7twO-47" vertex="1">
          <mxGeometry x="50" width="120" height="20" as="geometry">
            <mxRectangle width="120" height="20" as="alternateBounds" />
          </mxGeometry>
        </mxCell>
        <mxCell id="EMZnvqDmzWofthWg7twO-50" value="x" style="shape=table;startSize=30;container=1;collapsible=1;childLayout=tableLayout;fixedRows=1;rowLines=0;fontStyle=1;align=center;resizeLast=1;" parent="1" vertex="1">
          <mxGeometry x="10" y="150" width="150" height="70" as="geometry" />
        </mxCell>
        <mxCell id="EMZnvqDmzWofthWg7twO-51" value="" style="shape=partialRectangle;collapsible=0;dropTarget=0;pointerEvents=0;fillColor=none;points=[[0,0.5],[1,0.5]];portConstraint=eastwest;top=0;left=0;right=0;bottom=1;" parent="EMZnvqDmzWofthWg7twO-50" vertex="1">
          <mxGeometry y="30" width="150" height="20" as="geometry" />
        </mxCell>
        <mxCell id="EMZnvqDmzWofthWg7twO-52" value="PK" style="shape=partialRectangle;overflow=hidden;connectable=0;fillColor=none;top=0;left=0;bottom=0;right=0;fontStyle=1;" parent="EMZnvqDmzWofthWg7twO-51" vertex="1">
          <mxGeometry width="30" height="20" as="geometry">
            <mxRectangle width="30" height="20" as="alternateBounds" />
          </mxGeometry>
        </mxCell>
        <mxCell id="EMZnvqDmzWofthWg7twO-53" value="code" style="shape=partialRectangle;overflow=hidden;connectable=0;fillColor=none;top=0;left=0;bottom=0;right=0;align=left;spacingLeft=6;fontStyle=5;" parent="EMZnvqDmzWofthWg7twO-51" vertex="1">
          <mxGeometry x="30" width="120" height="20" as="geometry">
            <mxRectangle width="120" height="20" as="alternateBounds" />
          </mxGeometry>
        </mxCell>
        <mxCell id="EMZnvqDmzWofthWg7twO-54" value="" style="shape=partialRectangle;collapsible=0;dropTarget=0;pointerEvents=0;fillColor=none;points=[[0,0.5],[1,0.5]];portConstraint=eastwest;top=0;left=0;right=0;bottom=0;" parent="EMZnvqDmzWofthWg7twO-50" vertex="1">
          <mxGeometry y="50" width="150" height="20" as="geometry" />
        </mxCell>
        <mxCell id="EMZnvqDmzWofthWg7twO-55" value="" style="shape=partialRectangle;overflow=hidden;connectable=0;fillColor=none;top=0;left=0;bottom=0;right=0;" parent="EMZnvqDmzWofthWg7twO-54" vertex="1">
          <mxGeometry width="30" height="20" as="geometry">
            <mxRectangle width="30" height="20" as="alternateBounds" />
          </mxGeometry>
        </mxCell>
        <mxCell id="EMZnvqDmzWofthWg7twO-56" value="nom" style="shape=partialRectangle;overflow=hidden;connectable=0;fillColor=none;top=0;left=0;bottom=0;right=0;align=left;spacingLeft=6;" parent="EMZnvqDmzWofthWg7twO-54" vertex="1">
          <mxGeometry x="30" width="120" height="20" as="geometry">
            <mxRectangle width="120" height="20" as="alternateBounds" />
          </mxGeometry>
        </mxCell>
        <mxCell id="EMZnvqDmzWofthWg7twO-57" value="x" style="shape=table;startSize=30;container=1;collapsible=1;childLayout=tableLayout;fixedRows=1;rowLines=0;fontStyle=1;align=center;resizeLast=1;" parent="1" vertex="1">
          <mxGeometry x="10" y="250" width="150" height="70" as="geometry" />
        </mxCell>
        <mxCell id="EMZnvqDmzWofthWg7twO-58" value="" style="shape=partialRectangle;collapsible=0;dropTarget=0;pointerEvents=0;fillColor=none;points=[[0,0.5],[1,0.5]];portConstraint=eastwest;top=0;left=0;right=0;bottom=1;" parent="EMZnvqDmzWofthWg7twO-57" vertex="1">
          <mxGeometry y="30" width="150" height="20" as="geometry" />
        </mxCell>
        <mxCell id="EMZnvqDmzWofthWg7twO-59" value="PK" style="shape=partialRectangle;overflow=hidden;connectable=0;fillColor=none;top=0;left=0;bottom=0;right=0;fontStyle=1;" parent="EMZnvqDmzWofthWg7twO-58" vertex="1">
          <mxGeometry width="30" height="20" as="geometry">
            <mxRectangle width="30" height="20" as="alternateBounds" />
          </mxGeometry>
        </mxCell>
        <mxCell id="EMZnvqDmzWofthWg7twO-60" value="num_code" style="shape=partialRectangle;overflow=hidden;connectable=0;fillColor=none;top=0;left=0;bottom=0;right=0;align=left;spacingLeft=6;fontStyle=5;" parent="EMZnvqDmzWofthWg7twO-58" vertex="1">
          <mxGeometry x="30" width="120" height="20" as="geometry">
            <mxRectangle width="120" height="20" as="alternateBounds" />
          </mxGeometry>
        </mxCell>
        <mxCell id="EMZnvqDmzWofthWg7twO-61" value="" style="shape=partialRectangle;collapsible=0;dropTarget=0;pointerEvents=0;fillColor=none;points=[[0,0.5],[1,0.5]];portConstraint=eastwest;top=0;left=0;right=0;bottom=0;" parent="EMZnvqDmzWofthWg7twO-57" vertex="1">
          <mxGeometry y="50" width="150" height="20" as="geometry" />
        </mxCell>
        <mxCell id="EMZnvqDmzWofthWg7twO-62" value="" style="shape=partialRectangle;overflow=hidden;connectable=0;fillColor=none;top=0;left=0;bottom=0;right=0;" parent="EMZnvqDmzWofthWg7twO-61" vertex="1">
          <mxGeometry width="30" height="20" as="geometry">
            <mxRectangle width="30" height="20" as="alternateBounds" />
          </mxGeometry>
        </mxCell>
        <mxCell id="EMZnvqDmzWofthWg7twO-63" value="nom" style="shape=partialRectangle;overflow=hidden;connectable=0;fillColor=none;top=0;left=0;bottom=0;right=0;align=left;spacingLeft=6;" parent="EMZnvqDmzWofthWg7twO-61" vertex="1">
          <mxGeometry x="30" width="120" height="20" as="geometry">
            <mxRectangle width="120" height="20" as="alternateBounds" />
          </mxGeometry>
        </mxCell>
        <mxCell id="EMZnvqDmzWofthWg7twO-64" value="" style="endArrow=none;html=1;rounded=0;" parent="1" edge="1">
          <mxGeometry width="50" height="50" relative="1" as="geometry">
            <mxPoint x="450" y="240" as="sourcePoint" />
            <mxPoint x="530" y="170" as="targetPoint" />
          </mxGeometry>
        </mxCell>
        <mxCell id="EMZnvqDmzWofthWg7twO-65" value="Tables candidates sans PK" style="rounded=0;whiteSpace=wrap;html=1;" parent="1" vertex="1">
          <mxGeometry x="190" y="150" width="200" height="30" as="geometry" />
        </mxCell>
        <mxCell id="EMZnvqDmzWofthWg7twO-66" value="Orphelin(s):&lt;br&gt;-&amp;nbsp;" style="shape=note;size=20;whiteSpace=wrap;html=1;align=left;" parent="1" vertex="1">
          <mxGeometry x="580" y="240" width="130" height="70" as="geometry" />
        </mxCell>
        <mxCell id="EMZnvqDmzWofthWg7twO-67" value="Tables avec PK" style="rounded=0;whiteSpace=wrap;html=1;" parent="1" vertex="1">
          <mxGeometry x="190" y="205" width="200" height="30" as="geometry" />
        </mxCell>
        <mxCell id="EMZnvqDmzWofthWg7twO-68" value="Tables avec relations 1-N" style="rounded=0;whiteSpace=wrap;html=1;" parent="1" vertex="1">
          <mxGeometry x="190" y="260" width="200" height="30" as="geometry" />
        </mxCell>
        <mxCell id="EMZnvqDmzWofthWg7twO-69" value="Résidu (PK des ilots + orphelins):&lt;br&gt;-" style="shape=note;size=20;whiteSpace=wrap;html=1;align=left;" parent="1" vertex="1">
          <mxGeometry x="540" y="330" width="210" height="50" as="geometry" />
        </mxCell>
        <mxCell id="EMZnvqDmzWofthWg7twO-70" value="Exploitation du résidu" style="rounded=0;whiteSpace=wrap;html=1;" parent="1" vertex="1">
          <mxGeometry x="190" y="320" width="200" height="30" as="geometry" />
        </mxCell>
        <mxCell id="EMZnvqDmzWofthWg7twO-71" value="Tables avec relations N-M" style="rounded=0;whiteSpace=wrap;html=1;" parent="1" vertex="1">
          <mxGeometry x="190" y="370" width="200" height="30" as="geometry" />
        </mxCell>
        <mxCell id="EMZnvqDmzWofthWg7twO-72" value="Dépendances fonctionnelles à vérifier:&lt;br&gt;→&amp;nbsp;" style="shape=note;size=20;whiteSpace=wrap;html=1;align=left;" parent="1" vertex="1">
          <mxGeometry x="540" y="400" width="240" height="40" as="geometry" />
        </mxCell>
      </root>
    </mxGraphModel>
  </diagram>
  <diagram name="Pattern" id="5CuapeXHOddapg_7Wudo">
    <mxGraphModel dx="782" dy="510" grid="1" gridSize="10" guides="1" tooltips="1" connect="1" arrows="1" fold="1" page="1" pageScale="1" pageWidth="827" pageHeight="1169" math="0" shadow="0">
      <root>
        <mxCell id="0" />
        <mxCell id="1" parent="0" />
        <mxCell id="Dfg7eb4aAg4UZPPfmyUi-28" value="x" style="shape=table;startSize=30;container=1;collapsible=1;childLayout=tableLayout;fixedRows=1;rowLines=0;fontStyle=1;align=center;resizeLast=1;" parent="1" vertex="1">
          <mxGeometry x="60" y="20" width="130" height="70" as="geometry" />
        </mxCell>
        <mxCell id="Dfg7eb4aAg4UZPPfmyUi-29" value="" style="shape=partialRectangle;collapsible=0;dropTarget=0;pointerEvents=0;fillColor=none;points=[[0,0.5],[1,0.5]];portConstraint=eastwest;top=0;left=0;right=0;bottom=1;" parent="Dfg7eb4aAg4UZPPfmyUi-28" vertex="1">
          <mxGeometry y="30" width="130" height="20" as="geometry" />
        </mxCell>
        <mxCell id="Dfg7eb4aAg4UZPPfmyUi-30" value="PK" style="shape=partialRectangle;overflow=hidden;connectable=0;fillColor=#d5e8d4;top=0;left=0;bottom=0;right=0;fontStyle=1;strokeColor=#82b366;" parent="Dfg7eb4aAg4UZPPfmyUi-29" vertex="1">
          <mxGeometry width="30" height="20" as="geometry">
            <mxRectangle width="30" height="20" as="alternateBounds" />
          </mxGeometry>
        </mxCell>
        <mxCell id="Dfg7eb4aAg4UZPPfmyUi-31" value="id" style="shape=partialRectangle;overflow=hidden;connectable=0;fillColor=none;top=0;left=0;bottom=0;right=0;align=left;spacingLeft=6;fontStyle=5;" parent="Dfg7eb4aAg4UZPPfmyUi-29" vertex="1">
          <mxGeometry x="30" width="100" height="20" as="geometry">
            <mxRectangle width="100" height="20" as="alternateBounds" />
          </mxGeometry>
        </mxCell>
        <mxCell id="Dfg7eb4aAg4UZPPfmyUi-32" value="" style="shape=partialRectangle;collapsible=0;dropTarget=0;pointerEvents=0;fillColor=none;points=[[0,0.5],[1,0.5]];portConstraint=eastwest;top=0;left=0;right=0;bottom=0;" parent="Dfg7eb4aAg4UZPPfmyUi-28" vertex="1">
          <mxGeometry y="50" width="130" height="20" as="geometry" />
        </mxCell>
        <mxCell id="Dfg7eb4aAg4UZPPfmyUi-33" value="" style="shape=partialRectangle;overflow=hidden;connectable=0;fillColor=none;top=0;left=0;bottom=0;right=0;" parent="Dfg7eb4aAg4UZPPfmyUi-32" vertex="1">
          <mxGeometry width="30" height="20" as="geometry">
            <mxRectangle width="30" height="20" as="alternateBounds" />
          </mxGeometry>
        </mxCell>
        <mxCell id="Dfg7eb4aAg4UZPPfmyUi-34" value="" style="shape=partialRectangle;overflow=hidden;connectable=0;fillColor=none;top=0;left=0;bottom=0;right=0;align=left;spacingLeft=6;" parent="Dfg7eb4aAg4UZPPfmyUi-32" vertex="1">
          <mxGeometry x="30" width="100" height="20" as="geometry">
            <mxRectangle width="100" height="20" as="alternateBounds" />
          </mxGeometry>
        </mxCell>
        <mxCell id="Dfg7eb4aAg4UZPPfmyUi-35" value="y" style="shape=table;startSize=30;container=1;collapsible=1;childLayout=tableLayout;fixedRows=1;rowLines=0;fontStyle=1;align=center;resizeLast=1;" parent="1" vertex="1">
          <mxGeometry x="285" y="20" width="140" height="70" as="geometry" />
        </mxCell>
        <mxCell id="Dfg7eb4aAg4UZPPfmyUi-36" value="" style="shape=partialRectangle;collapsible=0;dropTarget=0;pointerEvents=0;fillColor=none;points=[[0,0.5],[1,0.5]];portConstraint=eastwest;top=0;left=0;right=0;bottom=1;" parent="Dfg7eb4aAg4UZPPfmyUi-35" vertex="1">
          <mxGeometry y="30" width="140" height="20" as="geometry" />
        </mxCell>
        <mxCell id="Dfg7eb4aAg4UZPPfmyUi-37" value="PK" style="shape=partialRectangle;overflow=hidden;connectable=0;fillColor=none;top=0;left=0;bottom=0;right=0;fontStyle=1;" parent="Dfg7eb4aAg4UZPPfmyUi-36" vertex="1">
          <mxGeometry width="30" height="20" as="geometry">
            <mxRectangle width="30" height="20" as="alternateBounds" />
          </mxGeometry>
        </mxCell>
        <mxCell id="Dfg7eb4aAg4UZPPfmyUi-38" value="id" style="shape=partialRectangle;overflow=hidden;connectable=0;fillColor=none;top=0;left=0;bottom=0;right=0;align=left;spacingLeft=6;fontStyle=5;" parent="Dfg7eb4aAg4UZPPfmyUi-36" vertex="1">
          <mxGeometry x="30" width="110" height="20" as="geometry">
            <mxRectangle width="110" height="20" as="alternateBounds" />
          </mxGeometry>
        </mxCell>
        <mxCell id="Dfg7eb4aAg4UZPPfmyUi-39" value="" style="shape=partialRectangle;collapsible=0;dropTarget=0;pointerEvents=0;fillColor=none;points=[[0,0.5],[1,0.5]];portConstraint=eastwest;top=0;left=0;right=0;bottom=0;" parent="Dfg7eb4aAg4UZPPfmyUi-35" vertex="1">
          <mxGeometry y="50" width="140" height="20" as="geometry" />
        </mxCell>
        <mxCell id="Dfg7eb4aAg4UZPPfmyUi-40" value="FK" style="shape=partialRectangle;overflow=hidden;connectable=0;fillColor=#d5e8d4;top=0;left=0;bottom=0;right=0;strokeColor=#82b366;" parent="Dfg7eb4aAg4UZPPfmyUi-39" vertex="1">
          <mxGeometry width="30" height="20" as="geometry">
            <mxRectangle width="30" height="20" as="alternateBounds" />
          </mxGeometry>
        </mxCell>
        <mxCell id="Dfg7eb4aAg4UZPPfmyUi-41" value="x_id" style="shape=partialRectangle;overflow=hidden;connectable=0;fillColor=none;top=0;left=0;bottom=0;right=0;align=left;spacingLeft=6;" parent="Dfg7eb4aAg4UZPPfmyUi-39" vertex="1">
          <mxGeometry x="30" width="110" height="20" as="geometry">
            <mxRectangle width="110" height="20" as="alternateBounds" />
          </mxGeometry>
        </mxCell>
        <mxCell id="Dfg7eb4aAg4UZPPfmyUi-42" value="" style="fontSize=12;html=1;endArrow=ERmany;rounded=0;endSize=9;entryX=0;entryY=0.5;entryDx=0;entryDy=0;fillColor=#d5e8d4;strokeColor=#82b366;exitX=1;exitY=0.5;exitDx=0;exitDy=0;" parent="1" source="Dfg7eb4aAg4UZPPfmyUi-29" target="Dfg7eb4aAg4UZPPfmyUi-39" edge="1">
          <mxGeometry width="100" height="100" relative="1" as="geometry">
            <mxPoint x="190" y="70" as="sourcePoint" />
            <mxPoint x="290" y="-30" as="targetPoint" />
          </mxGeometry>
        </mxCell>
        <mxCell id="Dfg7eb4aAg4UZPPfmyUi-43" value="x" style="shape=table;startSize=30;container=1;collapsible=1;childLayout=tableLayout;fixedRows=1;rowLines=0;fontStyle=1;align=center;resizeLast=1;" parent="1" vertex="1">
          <mxGeometry x="60" y="135" width="130" height="70" as="geometry" />
        </mxCell>
        <mxCell id="Dfg7eb4aAg4UZPPfmyUi-44" value="" style="shape=partialRectangle;collapsible=0;dropTarget=0;pointerEvents=0;fillColor=none;points=[[0,0.5],[1,0.5]];portConstraint=eastwest;top=0;left=0;right=0;bottom=1;" parent="Dfg7eb4aAg4UZPPfmyUi-43" vertex="1">
          <mxGeometry y="30" width="130" height="20" as="geometry" />
        </mxCell>
        <mxCell id="Dfg7eb4aAg4UZPPfmyUi-45" value="PK" style="shape=partialRectangle;overflow=hidden;connectable=0;fillColor=#d5e8d4;top=0;left=0;bottom=0;right=0;fontStyle=1;strokeColor=#82b366;" parent="Dfg7eb4aAg4UZPPfmyUi-44" vertex="1">
          <mxGeometry width="30" height="20" as="geometry">
            <mxRectangle width="30" height="20" as="alternateBounds" />
          </mxGeometry>
        </mxCell>
        <mxCell id="Dfg7eb4aAg4UZPPfmyUi-46" value="id" style="shape=partialRectangle;overflow=hidden;connectable=0;fillColor=none;top=0;left=0;bottom=0;right=0;align=left;spacingLeft=6;fontStyle=5;" parent="Dfg7eb4aAg4UZPPfmyUi-44" vertex="1">
          <mxGeometry x="30" width="100" height="20" as="geometry">
            <mxRectangle width="100" height="20" as="alternateBounds" />
          </mxGeometry>
        </mxCell>
        <mxCell id="Dfg7eb4aAg4UZPPfmyUi-47" value="" style="shape=partialRectangle;collapsible=0;dropTarget=0;pointerEvents=0;fillColor=none;points=[[0,0.5],[1,0.5]];portConstraint=eastwest;top=0;left=0;right=0;bottom=0;" parent="Dfg7eb4aAg4UZPPfmyUi-43" vertex="1">
          <mxGeometry y="50" width="130" height="20" as="geometry" />
        </mxCell>
        <mxCell id="Dfg7eb4aAg4UZPPfmyUi-48" value="" style="shape=partialRectangle;overflow=hidden;connectable=0;fillColor=none;top=0;left=0;bottom=0;right=0;" parent="Dfg7eb4aAg4UZPPfmyUi-47" vertex="1">
          <mxGeometry width="30" height="20" as="geometry">
            <mxRectangle width="30" height="20" as="alternateBounds" />
          </mxGeometry>
        </mxCell>
        <mxCell id="Dfg7eb4aAg4UZPPfmyUi-49" value="" style="shape=partialRectangle;overflow=hidden;connectable=0;fillColor=none;top=0;left=0;bottom=0;right=0;align=left;spacingLeft=6;" parent="Dfg7eb4aAg4UZPPfmyUi-47" vertex="1">
          <mxGeometry x="30" width="100" height="20" as="geometry">
            <mxRectangle width="100" height="20" as="alternateBounds" />
          </mxGeometry>
        </mxCell>
        <mxCell id="Dfg7eb4aAg4UZPPfmyUi-50" value="y" style="shape=table;startSize=30;container=1;collapsible=1;childLayout=tableLayout;fixedRows=1;rowLines=0;fontStyle=1;align=center;resizeLast=1;" parent="1" vertex="1">
          <mxGeometry x="540" y="150" width="140" height="70" as="geometry" />
        </mxCell>
        <mxCell id="Dfg7eb4aAg4UZPPfmyUi-51" value="" style="shape=partialRectangle;collapsible=0;dropTarget=0;pointerEvents=0;fillColor=none;points=[[0,0.5],[1,0.5]];portConstraint=eastwest;top=0;left=0;right=0;bottom=1;" parent="Dfg7eb4aAg4UZPPfmyUi-50" vertex="1">
          <mxGeometry y="30" width="140" height="20" as="geometry" />
        </mxCell>
        <mxCell id="Dfg7eb4aAg4UZPPfmyUi-52" value="PK" style="shape=partialRectangle;overflow=hidden;connectable=0;fillColor=#ffe6cc;top=0;left=0;bottom=0;right=0;fontStyle=1;strokeColor=#d79b00;" parent="Dfg7eb4aAg4UZPPfmyUi-51" vertex="1">
          <mxGeometry width="30" height="20" as="geometry">
            <mxRectangle width="30" height="20" as="alternateBounds" />
          </mxGeometry>
        </mxCell>
        <mxCell id="Dfg7eb4aAg4UZPPfmyUi-53" value="id" style="shape=partialRectangle;overflow=hidden;connectable=0;fillColor=none;top=0;left=0;bottom=0;right=0;align=left;spacingLeft=6;fontStyle=5;" parent="Dfg7eb4aAg4UZPPfmyUi-51" vertex="1">
          <mxGeometry x="30" width="110" height="20" as="geometry">
            <mxRectangle width="110" height="20" as="alternateBounds" />
          </mxGeometry>
        </mxCell>
        <mxCell id="Dfg7eb4aAg4UZPPfmyUi-54" value="" style="shape=partialRectangle;collapsible=0;dropTarget=0;pointerEvents=0;fillColor=none;points=[[0,0.5],[1,0.5]];portConstraint=eastwest;top=0;left=0;right=0;bottom=0;" parent="Dfg7eb4aAg4UZPPfmyUi-50" vertex="1">
          <mxGeometry y="50" width="140" height="20" as="geometry" />
        </mxCell>
        <mxCell id="Dfg7eb4aAg4UZPPfmyUi-55" value="" style="shape=partialRectangle;overflow=hidden;connectable=0;fillColor=none;top=0;left=0;bottom=0;right=0;" parent="Dfg7eb4aAg4UZPPfmyUi-54" vertex="1">
          <mxGeometry width="30" height="20" as="geometry">
            <mxRectangle width="30" height="20" as="alternateBounds" />
          </mxGeometry>
        </mxCell>
        <mxCell id="Dfg7eb4aAg4UZPPfmyUi-56" value="" style="shape=partialRectangle;overflow=hidden;connectable=0;fillColor=none;top=0;left=0;bottom=0;right=0;align=left;spacingLeft=6;" parent="Dfg7eb4aAg4UZPPfmyUi-54" vertex="1">
          <mxGeometry x="30" width="110" height="20" as="geometry">
            <mxRectangle width="110" height="20" as="alternateBounds" />
          </mxGeometry>
        </mxCell>
        <mxCell id="Dfg7eb4aAg4UZPPfmyUi-57" value="x_vs_y" style="shape=table;startSize=30;container=1;collapsible=1;childLayout=tableLayout;fixedRows=1;rowLines=0;fontStyle=1;align=center;resizeLast=1;" parent="1" vertex="1">
          <mxGeometry x="280" y="125" width="160" height="90" as="geometry" />
        </mxCell>
        <mxCell id="Dfg7eb4aAg4UZPPfmyUi-58" value="" style="shape=tableRow;horizontal=0;startSize=0;swimlaneHead=0;swimlaneBody=0;fillColor=none;collapsible=0;dropTarget=0;points=[[0,0.5],[1,0.5]];portConstraint=eastwest;top=0;left=0;right=0;bottom=0;" parent="Dfg7eb4aAg4UZPPfmyUi-57" vertex="1">
          <mxGeometry y="30" width="160" height="20" as="geometry" />
        </mxCell>
        <mxCell id="Dfg7eb4aAg4UZPPfmyUi-59" value="PK,FK1" style="shape=partialRectangle;connectable=0;fillColor=#d5e8d4;top=0;left=0;bottom=0;right=0;fontStyle=1;overflow=hidden;strokeColor=#82b366;" parent="Dfg7eb4aAg4UZPPfmyUi-58" vertex="1">
          <mxGeometry width="50" height="20" as="geometry">
            <mxRectangle width="50" height="20" as="alternateBounds" />
          </mxGeometry>
        </mxCell>
        <mxCell id="Dfg7eb4aAg4UZPPfmyUi-60" value="x_id" style="shape=partialRectangle;connectable=0;fillColor=none;top=0;left=0;bottom=0;right=0;align=left;spacingLeft=6;fontStyle=5;overflow=hidden;" parent="Dfg7eb4aAg4UZPPfmyUi-58" vertex="1">
          <mxGeometry x="50" width="110" height="20" as="geometry">
            <mxRectangle width="110" height="20" as="alternateBounds" />
          </mxGeometry>
        </mxCell>
        <mxCell id="Dfg7eb4aAg4UZPPfmyUi-61" value="" style="shape=tableRow;horizontal=0;startSize=0;swimlaneHead=0;swimlaneBody=0;fillColor=none;collapsible=0;dropTarget=0;points=[[0,0.5],[1,0.5]];portConstraint=eastwest;top=0;left=0;right=0;bottom=1;" parent="Dfg7eb4aAg4UZPPfmyUi-57" vertex="1">
          <mxGeometry y="50" width="160" height="20" as="geometry" />
        </mxCell>
        <mxCell id="Dfg7eb4aAg4UZPPfmyUi-62" value="PK,FK2" style="shape=partialRectangle;connectable=0;fillColor=#ffe6cc;top=0;left=0;bottom=0;right=0;fontStyle=1;overflow=hidden;strokeColor=#d79b00;" parent="Dfg7eb4aAg4UZPPfmyUi-61" vertex="1">
          <mxGeometry width="50" height="20" as="geometry">
            <mxRectangle width="50" height="20" as="alternateBounds" />
          </mxGeometry>
        </mxCell>
        <mxCell id="Dfg7eb4aAg4UZPPfmyUi-63" value="y_id" style="shape=partialRectangle;connectable=0;fillColor=none;top=0;left=0;bottom=0;right=0;align=left;spacingLeft=6;fontStyle=5;overflow=hidden;" parent="Dfg7eb4aAg4UZPPfmyUi-61" vertex="1">
          <mxGeometry x="50" width="110" height="20" as="geometry">
            <mxRectangle width="110" height="20" as="alternateBounds" />
          </mxGeometry>
        </mxCell>
        <mxCell id="Dfg7eb4aAg4UZPPfmyUi-64" value="" style="shape=tableRow;horizontal=0;startSize=0;swimlaneHead=0;swimlaneBody=0;fillColor=none;collapsible=0;dropTarget=0;points=[[0,0.5],[1,0.5]];portConstraint=eastwest;top=0;left=0;right=0;bottom=0;" parent="Dfg7eb4aAg4UZPPfmyUi-57" vertex="1">
          <mxGeometry y="70" width="160" height="20" as="geometry" />
        </mxCell>
        <mxCell id="Dfg7eb4aAg4UZPPfmyUi-65" value="" style="shape=partialRectangle;connectable=0;fillColor=none;top=0;left=0;bottom=0;right=0;editable=1;overflow=hidden;" parent="Dfg7eb4aAg4UZPPfmyUi-64" vertex="1">
          <mxGeometry width="50" height="20" as="geometry">
            <mxRectangle width="50" height="20" as="alternateBounds" />
          </mxGeometry>
        </mxCell>
        <mxCell id="Dfg7eb4aAg4UZPPfmyUi-66" value="" style="shape=partialRectangle;connectable=0;fillColor=none;top=0;left=0;bottom=0;right=0;align=left;spacingLeft=6;overflow=hidden;" parent="Dfg7eb4aAg4UZPPfmyUi-64" vertex="1">
          <mxGeometry x="50" width="110" height="20" as="geometry">
            <mxRectangle width="110" height="20" as="alternateBounds" />
          </mxGeometry>
        </mxCell>
        <mxCell id="Dfg7eb4aAg4UZPPfmyUi-67" value="" style="fontSize=12;html=1;endArrow=ERmany;rounded=0;endSize=9;fillColor=#d5e8d4;strokeColor=#82b366;entryX=0;entryY=0.5;entryDx=0;entryDy=0;exitX=1;exitY=0.5;exitDx=0;exitDy=0;exitPerimeter=0;" parent="1" source="Dfg7eb4aAg4UZPPfmyUi-44" target="Dfg7eb4aAg4UZPPfmyUi-58" edge="1">
          <mxGeometry width="100" height="100" relative="1" as="geometry">
            <mxPoint x="200" y="120" as="sourcePoint" />
            <mxPoint x="280" y="124" as="targetPoint" />
          </mxGeometry>
        </mxCell>
        <mxCell id="Dfg7eb4aAg4UZPPfmyUi-68" value="" style="fontSize=12;html=1;endArrow=ERmany;rounded=0;endSize=9;exitX=0;exitY=0.5;exitDx=0;exitDy=0;entryX=1;entryY=0.5;entryDx=0;entryDy=0;fillColor=#ffe6cc;strokeColor=#d79b00;" parent="1" source="Dfg7eb4aAg4UZPPfmyUi-51" target="Dfg7eb4aAg4UZPPfmyUi-61" edge="1">
          <mxGeometry width="100" height="100" relative="1" as="geometry">
            <mxPoint x="490" y="179" as="sourcePoint" />
            <mxPoint x="580" y="54" as="targetPoint" />
          </mxGeometry>
        </mxCell>
        <mxCell id="Dfg7eb4aAg4UZPPfmyUi-69" value="Relation 1-N" style="shape=note;size=20;whiteSpace=wrap;html=1;align=left;" parent="1" vertex="1">
          <mxGeometry x="495" y="20" width="100" height="30" as="geometry" />
        </mxCell>
        <mxCell id="Dfg7eb4aAg4UZPPfmyUi-70" value="Relation N-M" style="shape=note;size=20;whiteSpace=wrap;html=1;align=left;" parent="1" vertex="1">
          <mxGeometry x="535" y="105" width="100" height="30" as="geometry" />
        </mxCell>
        <mxCell id="Dfg7eb4aAg4UZPPfmyUi-71" value="1" style="text;strokeColor=none;align=center;fillColor=none;html=1;verticalAlign=middle;whiteSpace=wrap;rounded=0;" parent="1" vertex="1">
          <mxGeometry x="190" y="150" width="20" height="20" as="geometry" />
        </mxCell>
        <mxCell id="Dfg7eb4aAg4UZPPfmyUi-72" value="1" style="text;strokeColor=none;align=center;fillColor=none;html=1;verticalAlign=middle;whiteSpace=wrap;rounded=0;" parent="1" vertex="1">
          <mxGeometry x="190" y="40" width="15" height="20" as="geometry" />
        </mxCell>
        <mxCell id="Dfg7eb4aAg4UZPPfmyUi-73" value="1" style="text;strokeColor=none;align=center;fillColor=none;html=1;verticalAlign=middle;whiteSpace=wrap;rounded=0;" parent="1" vertex="1">
          <mxGeometry x="520" y="170" width="20" height="20" as="geometry" />
        </mxCell>
        <mxCell id="Dfg7eb4aAg4UZPPfmyUi-74" value="N" style="text;strokeColor=none;align=center;fillColor=none;html=1;verticalAlign=middle;whiteSpace=wrap;rounded=0;" parent="1" vertex="1">
          <mxGeometry x="440" y="160" width="20" height="20" as="geometry" />
        </mxCell>
        <mxCell id="Dfg7eb4aAg4UZPPfmyUi-75" value="N" style="text;strokeColor=none;align=center;fillColor=none;html=1;verticalAlign=middle;whiteSpace=wrap;rounded=0;" parent="1" vertex="1">
          <mxGeometry x="260" y="140" width="20" height="20" as="geometry" />
        </mxCell>
        <mxCell id="Dfg7eb4aAg4UZPPfmyUi-76" value="N" style="text;strokeColor=none;align=center;fillColor=none;html=1;verticalAlign=middle;whiteSpace=wrap;rounded=0;" parent="1" vertex="1">
          <mxGeometry x="260" y="50" width="20" height="20" as="geometry" />
        </mxCell>
        <mxCell id="Dfg7eb4aAg4UZPPfmyUi-77" value="x" style="shape=table;startSize=30;container=1;collapsible=1;childLayout=tableLayout;fixedRows=1;rowLines=0;fontStyle=1;align=center;resizeLast=1;" parent="1" vertex="1">
          <mxGeometry x="280" y="240" width="160" height="90" as="geometry" />
        </mxCell>
        <mxCell id="Dfg7eb4aAg4UZPPfmyUi-78" value="" style="shape=partialRectangle;collapsible=0;dropTarget=0;pointerEvents=0;fillColor=none;points=[[0,0.5],[1,0.5]];portConstraint=eastwest;top=0;left=0;right=0;bottom=1;" parent="Dfg7eb4aAg4UZPPfmyUi-77" vertex="1">
          <mxGeometry y="30" width="160" height="20" as="geometry" />
        </mxCell>
        <mxCell id="Dfg7eb4aAg4UZPPfmyUi-79" value="PK" style="shape=partialRectangle;overflow=hidden;connectable=0;fillColor=none;top=0;left=0;bottom=0;right=0;fontStyle=1;" parent="Dfg7eb4aAg4UZPPfmyUi-78" vertex="1">
          <mxGeometry width="30" height="20" as="geometry">
            <mxRectangle width="30" height="20" as="alternateBounds" />
          </mxGeometry>
        </mxCell>
        <mxCell id="Dfg7eb4aAg4UZPPfmyUi-80" value="id" style="shape=partialRectangle;overflow=hidden;connectable=0;fillColor=none;top=0;left=0;bottom=0;right=0;align=left;spacingLeft=6;fontStyle=5;" parent="Dfg7eb4aAg4UZPPfmyUi-78" vertex="1">
          <mxGeometry x="30" width="130" height="20" as="geometry">
            <mxRectangle width="130" height="20" as="alternateBounds" />
          </mxGeometry>
        </mxCell>
        <mxCell id="Dfg7eb4aAg4UZPPfmyUi-81" value="" style="shape=partialRectangle;collapsible=0;dropTarget=0;pointerEvents=0;fillColor=none;points=[[0,0.5],[1,0.5]];portConstraint=eastwest;top=0;left=0;right=0;bottom=0;" parent="Dfg7eb4aAg4UZPPfmyUi-77" vertex="1">
          <mxGeometry y="50" width="160" height="20" as="geometry" />
        </mxCell>
        <mxCell id="Dfg7eb4aAg4UZPPfmyUi-82" value="" style="shape=partialRectangle;overflow=hidden;connectable=0;fillColor=none;top=0;left=0;bottom=0;right=0;" parent="Dfg7eb4aAg4UZPPfmyUi-81" vertex="1">
          <mxGeometry width="30" height="20" as="geometry">
            <mxRectangle width="30" height="20" as="alternateBounds" />
          </mxGeometry>
        </mxCell>
        <mxCell id="Dfg7eb4aAg4UZPPfmyUi-83" value="" style="shape=partialRectangle;overflow=hidden;connectable=0;fillColor=none;top=0;left=0;bottom=0;right=0;align=left;spacingLeft=6;" parent="Dfg7eb4aAg4UZPPfmyUi-81" vertex="1">
          <mxGeometry x="30" width="130" height="20" as="geometry">
            <mxRectangle width="130" height="20" as="alternateBounds" />
          </mxGeometry>
        </mxCell>
        <mxCell id="Dfg7eb4aAg4UZPPfmyUi-84" value="" style="shape=partialRectangle;collapsible=0;dropTarget=0;pointerEvents=0;fillColor=none;points=[[0,0.5],[1,0.5]];portConstraint=eastwest;top=0;left=0;right=0;bottom=0;" parent="Dfg7eb4aAg4UZPPfmyUi-77" vertex="1">
          <mxGeometry y="70" width="160" height="20" as="geometry" />
        </mxCell>
        <mxCell id="Dfg7eb4aAg4UZPPfmyUi-85" value="FK" style="shape=partialRectangle;overflow=hidden;connectable=0;fillColor=#f8cecc;top=0;left=0;bottom=0;right=0;strokeColor=#b85450;" parent="Dfg7eb4aAg4UZPPfmyUi-84" vertex="1">
          <mxGeometry width="30" height="20" as="geometry">
            <mxRectangle width="30" height="20" as="alternateBounds" />
          </mxGeometry>
        </mxCell>
        <mxCell id="Dfg7eb4aAg4UZPPfmyUi-86" value="parent_id" style="shape=partialRectangle;overflow=hidden;connectable=0;fillColor=none;top=0;left=0;bottom=0;right=0;align=left;spacingLeft=6;" parent="Dfg7eb4aAg4UZPPfmyUi-84" vertex="1">
          <mxGeometry x="30" width="130" height="20" as="geometry">
            <mxRectangle width="130" height="20" as="alternateBounds" />
          </mxGeometry>
        </mxCell>
        <mxCell id="Dfg7eb4aAg4UZPPfmyUi-87" value="" style="fontSize=12;html=1;endArrow=ERmany;rounded=0;endSize=9;exitX=1;exitY=0.5;exitDx=0;exitDy=0;entryX=1;entryY=0.5;entryDx=0;entryDy=0;fillColor=#f8cecc;strokeColor=#b85450;" parent="Dfg7eb4aAg4UZPPfmyUi-77" source="Dfg7eb4aAg4UZPPfmyUi-78" target="Dfg7eb4aAg4UZPPfmyUi-84" edge="1">
          <mxGeometry width="100" height="100" relative="1" as="geometry">
            <mxPoint x="301.76" y="80" as="sourcePoint" />
            <mxPoint x="209.99529411764706" y="140" as="targetPoint" />
            <Array as="points">
              <mxPoint x="200" y="40" />
              <mxPoint x="200" y="80" />
            </Array>
          </mxGeometry>
        </mxCell>
        <mxCell id="Dfg7eb4aAg4UZPPfmyUi-88" value="Relation hiérarchique" style="shape=note;size=20;whiteSpace=wrap;html=1;align=left;" parent="1" vertex="1">
          <mxGeometry x="510" y="240" width="150" height="30" as="geometry" />
        </mxCell>
        <mxCell id="iO84eir5cPF3uU1FpLYp-1" value="concept" style="shape=table;startSize=30;container=1;collapsible=1;childLayout=tableLayout;fixedRows=1;rowLines=0;fontStyle=1;align=center;resizeLast=1;" parent="1" vertex="1">
          <mxGeometry x="40" y="1060" width="140" height="70" as="geometry" />
        </mxCell>
        <mxCell id="iO84eir5cPF3uU1FpLYp-2" value="" style="shape=tableRow;horizontal=0;startSize=0;swimlaneHead=0;swimlaneBody=0;fillColor=none;collapsible=0;dropTarget=0;points=[[0,0.5],[1,0.5]];portConstraint=eastwest;top=0;left=0;right=0;bottom=1;" parent="iO84eir5cPF3uU1FpLYp-1" vertex="1">
          <mxGeometry y="30" width="140" height="20" as="geometry" />
        </mxCell>
        <mxCell id="iO84eir5cPF3uU1FpLYp-3" value="PK" style="shape=partialRectangle;connectable=0;fillColor=none;top=0;left=0;bottom=0;right=0;fontStyle=1;overflow=hidden;" parent="iO84eir5cPF3uU1FpLYp-2" vertex="1">
          <mxGeometry width="30" height="20" as="geometry">
            <mxRectangle width="30" height="20" as="alternateBounds" />
          </mxGeometry>
        </mxCell>
        <mxCell id="iO84eir5cPF3uU1FpLYp-4" value="id" style="shape=partialRectangle;connectable=0;fillColor=none;top=0;left=0;bottom=0;right=0;align=left;spacingLeft=6;fontStyle=5;overflow=hidden;" parent="iO84eir5cPF3uU1FpLYp-2" vertex="1">
          <mxGeometry x="30" width="110" height="20" as="geometry">
            <mxRectangle width="110" height="20" as="alternateBounds" />
          </mxGeometry>
        </mxCell>
        <mxCell id="iO84eir5cPF3uU1FpLYp-5" value="" style="shape=tableRow;horizontal=0;startSize=0;swimlaneHead=0;swimlaneBody=0;fillColor=none;collapsible=0;dropTarget=0;points=[[0,0.5],[1,0.5]];portConstraint=eastwest;top=0;left=0;right=0;bottom=0;" parent="iO84eir5cPF3uU1FpLYp-1" vertex="1">
          <mxGeometry y="50" width="140" height="20" as="geometry" />
        </mxCell>
        <mxCell id="iO84eir5cPF3uU1FpLYp-6" value="" style="shape=partialRectangle;connectable=0;fillColor=none;top=0;left=0;bottom=0;right=0;editable=1;overflow=hidden;" parent="iO84eir5cPF3uU1FpLYp-5" vertex="1">
          <mxGeometry width="30" height="20" as="geometry">
            <mxRectangle width="30" height="20" as="alternateBounds" />
          </mxGeometry>
        </mxCell>
        <mxCell id="iO84eir5cPF3uU1FpLYp-7" value="nom" style="shape=partialRectangle;connectable=0;fillColor=none;top=0;left=0;bottom=0;right=0;align=left;spacingLeft=6;overflow=hidden;" parent="iO84eir5cPF3uU1FpLYp-5" vertex="1">
          <mxGeometry x="30" width="110" height="20" as="geometry">
            <mxRectangle width="110" height="20" as="alternateBounds" />
          </mxGeometry>
        </mxCell>
        <mxCell id="iO84eir5cPF3uU1FpLYp-8" value="concept_vs_concept" style="shape=table;startSize=30;container=1;collapsible=1;childLayout=tableLayout;fixedRows=1;rowLines=0;fontStyle=1;align=center;resizeLast=1;" parent="1" vertex="1">
          <mxGeometry x="260" y="1060" width="225" height="70" as="geometry" />
        </mxCell>
        <mxCell id="iO84eir5cPF3uU1FpLYp-9" value="" style="shape=tableRow;horizontal=0;startSize=0;swimlaneHead=0;swimlaneBody=0;fillColor=none;collapsible=0;dropTarget=0;points=[[0,0.5],[1,0.5]];portConstraint=eastwest;top=0;left=0;right=0;bottom=0;" parent="iO84eir5cPF3uU1FpLYp-8" vertex="1">
          <mxGeometry y="30" width="225" height="20" as="geometry" />
        </mxCell>
        <mxCell id="iO84eir5cPF3uU1FpLYp-10" value="PK,FK1" style="shape=partialRectangle;connectable=0;fillColor=none;top=0;left=0;bottom=0;right=0;fontStyle=1;overflow=hidden;" parent="iO84eir5cPF3uU1FpLYp-9" vertex="1">
          <mxGeometry width="60" height="20" as="geometry">
            <mxRectangle width="60" height="20" as="alternateBounds" />
          </mxGeometry>
        </mxCell>
        <mxCell id="iO84eir5cPF3uU1FpLYp-11" value="concept_parent_id" style="shape=partialRectangle;connectable=0;fillColor=none;top=0;left=0;bottom=0;right=0;align=left;spacingLeft=6;fontStyle=5;overflow=hidden;" parent="iO84eir5cPF3uU1FpLYp-9" vertex="1">
          <mxGeometry x="60" width="165" height="20" as="geometry">
            <mxRectangle width="165" height="20" as="alternateBounds" />
          </mxGeometry>
        </mxCell>
        <mxCell id="iO84eir5cPF3uU1FpLYp-12" value="" style="shape=tableRow;horizontal=0;startSize=0;swimlaneHead=0;swimlaneBody=0;fillColor=none;collapsible=0;dropTarget=0;points=[[0,0.5],[1,0.5]];portConstraint=eastwest;top=0;left=0;right=0;bottom=1;" parent="iO84eir5cPF3uU1FpLYp-8" vertex="1">
          <mxGeometry y="50" width="225" height="20" as="geometry" />
        </mxCell>
        <mxCell id="iO84eir5cPF3uU1FpLYp-13" value="PK,FK2" style="shape=partialRectangle;connectable=0;fillColor=none;top=0;left=0;bottom=0;right=0;fontStyle=1;overflow=hidden;" parent="iO84eir5cPF3uU1FpLYp-12" vertex="1">
          <mxGeometry width="60" height="20" as="geometry">
            <mxRectangle width="60" height="20" as="alternateBounds" />
          </mxGeometry>
        </mxCell>
        <mxCell id="iO84eir5cPF3uU1FpLYp-14" value="concept_enfant_id" style="shape=partialRectangle;connectable=0;fillColor=none;top=0;left=0;bottom=0;right=0;align=left;spacingLeft=6;fontStyle=5;overflow=hidden;" parent="iO84eir5cPF3uU1FpLYp-12" vertex="1">
          <mxGeometry x="60" width="165" height="20" as="geometry">
            <mxRectangle width="165" height="20" as="alternateBounds" />
          </mxGeometry>
        </mxCell>
        <mxCell id="iO84eir5cPF3uU1FpLYp-19" value="" style="fontSize=12;html=1;endArrow=ERmany;rounded=0;endSize=9;entryX=0;entryY=0.5;entryDx=0;entryDy=0;exitX=1;exitY=0.017;exitDx=0;exitDy=0;exitPerimeter=0;" parent="1" source="iO84eir5cPF3uU1FpLYp-2" target="iO84eir5cPF3uU1FpLYp-9" edge="1">
          <mxGeometry width="100" height="100" relative="1" as="geometry">
            <mxPoint x="420" y="860" as="sourcePoint" />
            <mxPoint x="325" y="864" as="targetPoint" />
          </mxGeometry>
        </mxCell>
        <mxCell id="iO84eir5cPF3uU1FpLYp-20" value="" style="fontSize=12;html=1;endArrow=ERmany;rounded=0;endSize=9;entryX=0;entryY=0.5;entryDx=0;entryDy=0;exitX=1;exitY=0.983;exitDx=0;exitDy=0;exitPerimeter=0;" parent="1" source="iO84eir5cPF3uU1FpLYp-2" target="iO84eir5cPF3uU1FpLYp-12" edge="1">
          <mxGeometry width="100" height="100" relative="1" as="geometry">
            <mxPoint x="520" y="930" as="sourcePoint" />
            <mxPoint x="365" y="997" as="targetPoint" />
          </mxGeometry>
        </mxCell>
        <mxCell id="iO84eir5cPF3uU1FpLYp-21" value="Bill of material" style="shape=note;size=20;whiteSpace=wrap;html=1;align=left;" parent="1" vertex="1">
          <mxGeometry x="520" y="1030" width="110" height="30" as="geometry" />
        </mxCell>
        <mxCell id="LnecdkdShnFeD8vXcbby-4" value="1" style="text;strokeColor=none;align=center;fillColor=none;html=1;verticalAlign=middle;whiteSpace=wrap;rounded=0;" parent="1" vertex="1">
          <mxGeometry x="440" y="260" width="20" height="20" as="geometry" />
        </mxCell>
        <mxCell id="LnecdkdShnFeD8vXcbby-5" value="N" style="text;strokeColor=none;align=center;fillColor=none;html=1;verticalAlign=middle;whiteSpace=wrap;rounded=0;" parent="1" vertex="1">
          <mxGeometry x="450" y="320" width="20" height="20" as="geometry" />
        </mxCell>
        <mxCell id="LnecdkdShnFeD8vXcbby-6" value="evenement" style="shape=table;startSize=30;container=1;collapsible=1;childLayout=tableLayout;fixedRows=1;rowLines=0;fontStyle=1;align=center;resizeLast=1;" parent="1" vertex="1">
          <mxGeometry x="45" y="860" width="145" height="90" as="geometry" />
        </mxCell>
        <mxCell id="LnecdkdShnFeD8vXcbby-7" value="" style="shape=tableRow;horizontal=0;startSize=0;swimlaneHead=0;swimlaneBody=0;fillColor=none;collapsible=0;dropTarget=0;points=[[0,0.5],[1,0.5]];portConstraint=eastwest;top=0;left=0;right=0;bottom=1;" parent="LnecdkdShnFeD8vXcbby-6" vertex="1">
          <mxGeometry y="30" width="145" height="20" as="geometry" />
        </mxCell>
        <mxCell id="LnecdkdShnFeD8vXcbby-8" value="PK" style="shape=partialRectangle;connectable=0;fillColor=none;top=0;left=0;bottom=0;right=0;fontStyle=1;overflow=hidden;" parent="LnecdkdShnFeD8vXcbby-7" vertex="1">
          <mxGeometry width="40" height="20" as="geometry">
            <mxRectangle width="40" height="20" as="alternateBounds" />
          </mxGeometry>
        </mxCell>
        <mxCell id="LnecdkdShnFeD8vXcbby-9" value="id" style="shape=partialRectangle;connectable=0;fillColor=none;top=0;left=0;bottom=0;right=0;align=left;spacingLeft=6;fontStyle=5;overflow=hidden;" parent="LnecdkdShnFeD8vXcbby-7" vertex="1">
          <mxGeometry x="40" width="105" height="20" as="geometry">
            <mxRectangle width="105" height="20" as="alternateBounds" />
          </mxGeometry>
        </mxCell>
        <mxCell id="LnecdkdShnFeD8vXcbby-10" value="" style="shape=tableRow;horizontal=0;startSize=0;swimlaneHead=0;swimlaneBody=0;fillColor=none;collapsible=0;dropTarget=0;points=[[0,0.5],[1,0.5]];portConstraint=eastwest;top=0;left=0;right=0;bottom=0;" parent="LnecdkdShnFeD8vXcbby-6" vertex="1">
          <mxGeometry y="50" width="145" height="20" as="geometry" />
        </mxCell>
        <mxCell id="LnecdkdShnFeD8vXcbby-11" value="" style="shape=partialRectangle;connectable=0;fillColor=none;top=0;left=0;bottom=0;right=0;editable=1;overflow=hidden;" parent="LnecdkdShnFeD8vXcbby-10" vertex="1">
          <mxGeometry width="40" height="20" as="geometry">
            <mxRectangle width="40" height="20" as="alternateBounds" />
          </mxGeometry>
        </mxCell>
        <mxCell id="LnecdkdShnFeD8vXcbby-12" value="debut_date" style="shape=partialRectangle;connectable=0;fillColor=none;top=0;left=0;bottom=0;right=0;align=left;spacingLeft=6;overflow=hidden;" parent="LnecdkdShnFeD8vXcbby-10" vertex="1">
          <mxGeometry x="40" width="105" height="20" as="geometry">
            <mxRectangle width="105" height="20" as="alternateBounds" />
          </mxGeometry>
        </mxCell>
        <mxCell id="LnecdkdShnFeD8vXcbby-13" value="" style="shape=tableRow;horizontal=0;startSize=0;swimlaneHead=0;swimlaneBody=0;fillColor=none;collapsible=0;dropTarget=0;points=[[0,0.5],[1,0.5]];portConstraint=eastwest;top=0;left=0;right=0;bottom=0;" parent="LnecdkdShnFeD8vXcbby-6" vertex="1">
          <mxGeometry y="70" width="145" height="20" as="geometry" />
        </mxCell>
        <mxCell id="LnecdkdShnFeD8vXcbby-14" value="" style="shape=partialRectangle;connectable=0;fillColor=none;top=0;left=0;bottom=0;right=0;editable=1;overflow=hidden;" parent="LnecdkdShnFeD8vXcbby-13" vertex="1">
          <mxGeometry width="40" height="20" as="geometry">
            <mxRectangle width="40" height="20" as="alternateBounds" />
          </mxGeometry>
        </mxCell>
        <mxCell id="LnecdkdShnFeD8vXcbby-15" value="fin_date" style="shape=partialRectangle;connectable=0;fillColor=none;top=0;left=0;bottom=0;right=0;align=left;spacingLeft=6;overflow=hidden;" parent="LnecdkdShnFeD8vXcbby-13" vertex="1">
          <mxGeometry x="40" width="105" height="20" as="geometry">
            <mxRectangle width="105" height="20" as="alternateBounds" />
          </mxGeometry>
        </mxCell>
        <mxCell id="LnecdkdShnFeD8vXcbby-16" value="participant" style="shape=table;startSize=30;container=1;collapsible=1;childLayout=tableLayout;fixedRows=1;rowLines=0;fontStyle=1;align=center;resizeLast=1;" parent="1" vertex="1">
          <mxGeometry x="575" y="870" width="130" height="70" as="geometry" />
        </mxCell>
        <mxCell id="LnecdkdShnFeD8vXcbby-17" value="" style="shape=partialRectangle;collapsible=0;dropTarget=0;pointerEvents=0;fillColor=none;points=[[0,0.5],[1,0.5]];portConstraint=eastwest;top=0;left=0;right=0;bottom=1;" parent="LnecdkdShnFeD8vXcbby-16" vertex="1">
          <mxGeometry y="30" width="130" height="20" as="geometry" />
        </mxCell>
        <mxCell id="LnecdkdShnFeD8vXcbby-18" value="PK" style="shape=partialRectangle;overflow=hidden;connectable=0;fillColor=none;top=0;left=0;bottom=0;right=0;fontStyle=1;" parent="LnecdkdShnFeD8vXcbby-17" vertex="1">
          <mxGeometry width="30" height="20" as="geometry">
            <mxRectangle width="30" height="20" as="alternateBounds" />
          </mxGeometry>
        </mxCell>
        <mxCell id="LnecdkdShnFeD8vXcbby-19" value="id" style="shape=partialRectangle;overflow=hidden;connectable=0;fillColor=none;top=0;left=0;bottom=0;right=0;align=left;spacingLeft=6;fontStyle=5;" parent="LnecdkdShnFeD8vXcbby-17" vertex="1">
          <mxGeometry x="30" width="100" height="20" as="geometry">
            <mxRectangle width="100" height="20" as="alternateBounds" />
          </mxGeometry>
        </mxCell>
        <mxCell id="LnecdkdShnFeD8vXcbby-20" value="" style="shape=partialRectangle;collapsible=0;dropTarget=0;pointerEvents=0;fillColor=none;points=[[0,0.5],[1,0.5]];portConstraint=eastwest;top=0;left=0;right=0;bottom=0;" parent="LnecdkdShnFeD8vXcbby-16" vertex="1">
          <mxGeometry y="50" width="130" height="20" as="geometry" />
        </mxCell>
        <mxCell id="LnecdkdShnFeD8vXcbby-21" value="" style="shape=partialRectangle;overflow=hidden;connectable=0;fillColor=none;top=0;left=0;bottom=0;right=0;" parent="LnecdkdShnFeD8vXcbby-20" vertex="1">
          <mxGeometry width="30" height="20" as="geometry">
            <mxRectangle width="30" height="20" as="alternateBounds" />
          </mxGeometry>
        </mxCell>
        <mxCell id="LnecdkdShnFeD8vXcbby-22" value="nom" style="shape=partialRectangle;overflow=hidden;connectable=0;fillColor=none;top=0;left=0;bottom=0;right=0;align=left;spacingLeft=6;" parent="LnecdkdShnFeD8vXcbby-20" vertex="1">
          <mxGeometry x="30" width="100" height="20" as="geometry">
            <mxRectangle width="100" height="20" as="alternateBounds" />
          </mxGeometry>
        </mxCell>
        <mxCell id="LnecdkdShnFeD8vXcbby-23" value="evenement_vs_participant" style="shape=table;startSize=30;container=1;collapsible=1;childLayout=tableLayout;fixedRows=1;rowLines=0;fontStyle=1;align=center;resizeLast=1;" parent="1" vertex="1">
          <mxGeometry x="267.5" y="870" width="210" height="90" as="geometry" />
        </mxCell>
        <mxCell id="LnecdkdShnFeD8vXcbby-24" value="" style="shape=tableRow;horizontal=0;startSize=0;swimlaneHead=0;swimlaneBody=0;fillColor=none;collapsible=0;dropTarget=0;points=[[0,0.5],[1,0.5]];portConstraint=eastwest;top=0;left=0;right=0;bottom=0;" parent="LnecdkdShnFeD8vXcbby-23" vertex="1">
          <mxGeometry y="30" width="210" height="20" as="geometry" />
        </mxCell>
        <mxCell id="LnecdkdShnFeD8vXcbby-25" value="PK,FK1" style="shape=partialRectangle;connectable=0;fillColor=none;top=0;left=0;bottom=0;right=0;fontStyle=1;overflow=hidden;" parent="LnecdkdShnFeD8vXcbby-24" vertex="1">
          <mxGeometry width="50" height="20" as="geometry">
            <mxRectangle width="50" height="20" as="alternateBounds" />
          </mxGeometry>
        </mxCell>
        <mxCell id="LnecdkdShnFeD8vXcbby-26" value="evenement_id" style="shape=partialRectangle;connectable=0;fillColor=none;top=0;left=0;bottom=0;right=0;align=left;spacingLeft=6;fontStyle=5;overflow=hidden;" parent="LnecdkdShnFeD8vXcbby-24" vertex="1">
          <mxGeometry x="50" width="160" height="20" as="geometry">
            <mxRectangle width="160" height="20" as="alternateBounds" />
          </mxGeometry>
        </mxCell>
        <mxCell id="LnecdkdShnFeD8vXcbby-27" value="" style="shape=tableRow;horizontal=0;startSize=0;swimlaneHead=0;swimlaneBody=0;fillColor=none;collapsible=0;dropTarget=0;points=[[0,0.5],[1,0.5]];portConstraint=eastwest;top=0;left=0;right=0;bottom=1;" parent="LnecdkdShnFeD8vXcbby-23" vertex="1">
          <mxGeometry y="50" width="210" height="20" as="geometry" />
        </mxCell>
        <mxCell id="LnecdkdShnFeD8vXcbby-28" value="PK,FK2" style="shape=partialRectangle;connectable=0;fillColor=none;top=0;left=0;bottom=0;right=0;fontStyle=1;overflow=hidden;" parent="LnecdkdShnFeD8vXcbby-27" vertex="1">
          <mxGeometry width="50" height="20" as="geometry">
            <mxRectangle width="50" height="20" as="alternateBounds" />
          </mxGeometry>
        </mxCell>
        <mxCell id="LnecdkdShnFeD8vXcbby-29" value="participant_id" style="shape=partialRectangle;connectable=0;fillColor=none;top=0;left=0;bottom=0;right=0;align=left;spacingLeft=6;fontStyle=5;overflow=hidden;" parent="LnecdkdShnFeD8vXcbby-27" vertex="1">
          <mxGeometry x="50" width="160" height="20" as="geometry">
            <mxRectangle width="160" height="20" as="alternateBounds" />
          </mxGeometry>
        </mxCell>
        <mxCell id="LnecdkdShnFeD8vXcbby-30" value="" style="shape=tableRow;horizontal=0;startSize=0;swimlaneHead=0;swimlaneBody=0;fillColor=none;collapsible=0;dropTarget=0;points=[[0,0.5],[1,0.5]];portConstraint=eastwest;top=0;left=0;right=0;bottom=0;" parent="LnecdkdShnFeD8vXcbby-23" vertex="1">
          <mxGeometry y="70" width="210" height="20" as="geometry" />
        </mxCell>
        <mxCell id="LnecdkdShnFeD8vXcbby-31" value="FK3" style="shape=partialRectangle;connectable=0;fillColor=none;top=0;left=0;bottom=0;right=0;editable=1;overflow=hidden;" parent="LnecdkdShnFeD8vXcbby-30" vertex="1">
          <mxGeometry width="50" height="20" as="geometry">
            <mxRectangle width="50" height="20" as="alternateBounds" />
          </mxGeometry>
        </mxCell>
        <mxCell id="LnecdkdShnFeD8vXcbby-32" value="role_code" style="shape=partialRectangle;connectable=0;fillColor=none;top=0;left=0;bottom=0;right=0;align=left;spacingLeft=6;overflow=hidden;" parent="LnecdkdShnFeD8vXcbby-30" vertex="1">
          <mxGeometry x="50" width="160" height="20" as="geometry">
            <mxRectangle width="160" height="20" as="alternateBounds" />
          </mxGeometry>
        </mxCell>
        <mxCell id="LnecdkdShnFeD8vXcbby-33" value="" style="fontSize=12;html=1;endArrow=ERmany;rounded=0;endSize=9;" parent="1" source="LnecdkdShnFeD8vXcbby-16" target="LnecdkdShnFeD8vXcbby-23" edge="1">
          <mxGeometry width="100" height="100" relative="1" as="geometry">
            <mxPoint x="770" y="760" as="sourcePoint" />
            <mxPoint x="835" y="764.7272727272727" as="targetPoint" />
          </mxGeometry>
        </mxCell>
        <mxCell id="LnecdkdShnFeD8vXcbby-34" value="" style="fontSize=12;html=1;endArrow=ERmany;rounded=0;endSize=9;" parent="1" source="LnecdkdShnFeD8vXcbby-6" target="LnecdkdShnFeD8vXcbby-23" edge="1">
          <mxGeometry width="100" height="100" relative="1" as="geometry">
            <mxPoint x="630" y="760" as="sourcePoint" />
            <mxPoint x="695" y="764.7272727272727" as="targetPoint" />
          </mxGeometry>
        </mxCell>
        <mxCell id="LnecdkdShnFeD8vXcbby-35" value="role" style="shape=table;startSize=30;container=1;collapsible=1;childLayout=tableLayout;fixedRows=1;rowLines=0;fontStyle=1;align=center;resizeLast=1;" parent="1" vertex="1">
          <mxGeometry x="330" y="760" width="130" height="70" as="geometry" />
        </mxCell>
        <mxCell id="LnecdkdShnFeD8vXcbby-36" value="" style="shape=partialRectangle;collapsible=0;dropTarget=0;pointerEvents=0;fillColor=none;points=[[0,0.5],[1,0.5]];portConstraint=eastwest;top=0;left=0;right=0;bottom=1;" parent="LnecdkdShnFeD8vXcbby-35" vertex="1">
          <mxGeometry y="30" width="130" height="20" as="geometry" />
        </mxCell>
        <mxCell id="LnecdkdShnFeD8vXcbby-37" value="PK" style="shape=partialRectangle;overflow=hidden;connectable=0;fillColor=none;top=0;left=0;bottom=0;right=0;fontStyle=1;" parent="LnecdkdShnFeD8vXcbby-36" vertex="1">
          <mxGeometry width="30" height="20" as="geometry">
            <mxRectangle width="30" height="20" as="alternateBounds" />
          </mxGeometry>
        </mxCell>
        <mxCell id="LnecdkdShnFeD8vXcbby-38" value="code" style="shape=partialRectangle;overflow=hidden;connectable=0;fillColor=none;top=0;left=0;bottom=0;right=0;align=left;spacingLeft=6;fontStyle=5;" parent="LnecdkdShnFeD8vXcbby-36" vertex="1">
          <mxGeometry x="30" width="100" height="20" as="geometry">
            <mxRectangle width="100" height="20" as="alternateBounds" />
          </mxGeometry>
        </mxCell>
        <mxCell id="LnecdkdShnFeD8vXcbby-39" value="" style="shape=partialRectangle;collapsible=0;dropTarget=0;pointerEvents=0;fillColor=none;points=[[0,0.5],[1,0.5]];portConstraint=eastwest;top=0;left=0;right=0;bottom=0;" parent="LnecdkdShnFeD8vXcbby-35" vertex="1">
          <mxGeometry y="50" width="130" height="20" as="geometry" />
        </mxCell>
        <mxCell id="LnecdkdShnFeD8vXcbby-40" value="" style="shape=partialRectangle;overflow=hidden;connectable=0;fillColor=none;top=0;left=0;bottom=0;right=0;" parent="LnecdkdShnFeD8vXcbby-39" vertex="1">
          <mxGeometry width="30" height="20" as="geometry">
            <mxRectangle width="30" height="20" as="alternateBounds" />
          </mxGeometry>
        </mxCell>
        <mxCell id="LnecdkdShnFeD8vXcbby-41" value="nom" style="shape=partialRectangle;overflow=hidden;connectable=0;fillColor=none;top=0;left=0;bottom=0;right=0;align=left;spacingLeft=6;" parent="LnecdkdShnFeD8vXcbby-39" vertex="1">
          <mxGeometry x="30" width="100" height="20" as="geometry">
            <mxRectangle width="100" height="20" as="alternateBounds" />
          </mxGeometry>
        </mxCell>
        <mxCell id="LnecdkdShnFeD8vXcbby-42" value="" style="fontSize=12;html=1;endArrow=ERmany;rounded=0;endSize=9;" parent="1" source="LnecdkdShnFeD8vXcbby-35" target="LnecdkdShnFeD8vXcbby-23" edge="1">
          <mxGeometry width="100" height="100" relative="1" as="geometry">
            <mxPoint x="795" y="780" as="sourcePoint" />
            <mxPoint x="725" y="789" as="targetPoint" />
          </mxGeometry>
        </mxCell>
        <mxCell id="LnecdkdShnFeD8vXcbby-43" value="concept_historique" style="shape=table;startSize=30;container=1;collapsible=1;childLayout=tableLayout;fixedRows=1;rowLines=0;fontStyle=1;align=center;resizeLast=1;" parent="1" vertex="1">
          <mxGeometry x="290" y="610" width="170" height="110" as="geometry" />
        </mxCell>
        <mxCell id="LnecdkdShnFeD8vXcbby-44" value="" style="shape=tableRow;horizontal=0;startSize=0;swimlaneHead=0;swimlaneBody=0;fillColor=none;collapsible=0;dropTarget=0;points=[[0,0.5],[1,0.5]];portConstraint=eastwest;top=0;left=0;right=0;bottom=0;" parent="LnecdkdShnFeD8vXcbby-43" vertex="1">
          <mxGeometry y="30" width="170" height="20" as="geometry" />
        </mxCell>
        <mxCell id="LnecdkdShnFeD8vXcbby-45" value="PK,FK" style="shape=partialRectangle;connectable=0;fillColor=none;top=0;left=0;bottom=0;right=0;fontStyle=1;overflow=hidden;" parent="LnecdkdShnFeD8vXcbby-44" vertex="1">
          <mxGeometry width="50" height="20" as="geometry">
            <mxRectangle width="50" height="20" as="alternateBounds" />
          </mxGeometry>
        </mxCell>
        <mxCell id="LnecdkdShnFeD8vXcbby-46" value="concept_id" style="shape=partialRectangle;connectable=0;fillColor=none;top=0;left=0;bottom=0;right=0;align=left;spacingLeft=6;fontStyle=5;overflow=hidden;" parent="LnecdkdShnFeD8vXcbby-44" vertex="1">
          <mxGeometry x="50" width="120" height="20" as="geometry">
            <mxRectangle width="120" height="20" as="alternateBounds" />
          </mxGeometry>
        </mxCell>
        <mxCell id="LnecdkdShnFeD8vXcbby-47" value="" style="shape=tableRow;horizontal=0;startSize=0;swimlaneHead=0;swimlaneBody=0;fillColor=none;collapsible=0;dropTarget=0;points=[[0,0.5],[1,0.5]];portConstraint=eastwest;top=0;left=0;right=0;bottom=1;" parent="LnecdkdShnFeD8vXcbby-43" vertex="1">
          <mxGeometry y="50" width="170" height="20" as="geometry" />
        </mxCell>
        <mxCell id="LnecdkdShnFeD8vXcbby-48" value="PK" style="shape=partialRectangle;connectable=0;fillColor=none;top=0;left=0;bottom=0;right=0;fontStyle=1;overflow=hidden;" parent="LnecdkdShnFeD8vXcbby-47" vertex="1">
          <mxGeometry width="50" height="20" as="geometry">
            <mxRectangle width="50" height="20" as="alternateBounds" />
          </mxGeometry>
        </mxCell>
        <mxCell id="LnecdkdShnFeD8vXcbby-49" value="debut_date" style="shape=partialRectangle;connectable=0;fillColor=none;top=0;left=0;bottom=0;right=0;align=left;spacingLeft=6;fontStyle=5;overflow=hidden;" parent="LnecdkdShnFeD8vXcbby-47" vertex="1">
          <mxGeometry x="50" width="120" height="20" as="geometry">
            <mxRectangle width="120" height="20" as="alternateBounds" />
          </mxGeometry>
        </mxCell>
        <mxCell id="LnecdkdShnFeD8vXcbby-50" value="" style="shape=tableRow;horizontal=0;startSize=0;swimlaneHead=0;swimlaneBody=0;fillColor=none;collapsible=0;dropTarget=0;points=[[0,0.5],[1,0.5]];portConstraint=eastwest;top=0;left=0;right=0;bottom=0;" parent="LnecdkdShnFeD8vXcbby-43" vertex="1">
          <mxGeometry y="70" width="170" height="20" as="geometry" />
        </mxCell>
        <mxCell id="LnecdkdShnFeD8vXcbby-51" value="" style="shape=partialRectangle;connectable=0;fillColor=none;top=0;left=0;bottom=0;right=0;editable=1;overflow=hidden;" parent="LnecdkdShnFeD8vXcbby-50" vertex="1">
          <mxGeometry width="50" height="20" as="geometry">
            <mxRectangle width="50" height="20" as="alternateBounds" />
          </mxGeometry>
        </mxCell>
        <mxCell id="LnecdkdShnFeD8vXcbby-52" value="fin_date" style="shape=partialRectangle;connectable=0;fillColor=none;top=0;left=0;bottom=0;right=0;align=left;spacingLeft=6;overflow=hidden;" parent="LnecdkdShnFeD8vXcbby-50" vertex="1">
          <mxGeometry x="50" width="120" height="20" as="geometry">
            <mxRectangle width="120" height="20" as="alternateBounds" />
          </mxGeometry>
        </mxCell>
        <mxCell id="LnecdkdShnFeD8vXcbby-53" value="" style="shape=tableRow;horizontal=0;startSize=0;swimlaneHead=0;swimlaneBody=0;fillColor=none;collapsible=0;dropTarget=0;points=[[0,0.5],[1,0.5]];portConstraint=eastwest;top=0;left=0;right=0;bottom=0;" parent="LnecdkdShnFeD8vXcbby-43" vertex="1">
          <mxGeometry y="90" width="170" height="20" as="geometry" />
        </mxCell>
        <mxCell id="LnecdkdShnFeD8vXcbby-54" value="" style="shape=partialRectangle;connectable=0;fillColor=none;top=0;left=0;bottom=0;right=0;editable=1;overflow=hidden;" parent="LnecdkdShnFeD8vXcbby-53" vertex="1">
          <mxGeometry width="50" height="20" as="geometry">
            <mxRectangle width="50" height="20" as="alternateBounds" />
          </mxGeometry>
        </mxCell>
        <mxCell id="LnecdkdShnFeD8vXcbby-55" value="valeur" style="shape=partialRectangle;connectable=0;fillColor=none;top=0;left=0;bottom=0;right=0;align=left;spacingLeft=6;overflow=hidden;" parent="LnecdkdShnFeD8vXcbby-53" vertex="1">
          <mxGeometry x="50" width="120" height="20" as="geometry">
            <mxRectangle width="120" height="20" as="alternateBounds" />
          </mxGeometry>
        </mxCell>
        <mxCell id="LnecdkdShnFeD8vXcbby-56" value="concept" style="shape=table;startSize=30;container=1;collapsible=1;childLayout=tableLayout;fixedRows=1;rowLines=0;fontStyle=1;align=center;resizeLast=1;" parent="1" vertex="1">
          <mxGeometry x="70" y="590" width="150" height="70" as="geometry" />
        </mxCell>
        <mxCell id="LnecdkdShnFeD8vXcbby-57" value="" style="shape=partialRectangle;collapsible=0;dropTarget=0;pointerEvents=0;fillColor=none;points=[[0,0.5],[1,0.5]];portConstraint=eastwest;top=0;left=0;right=0;bottom=1;" parent="LnecdkdShnFeD8vXcbby-56" vertex="1">
          <mxGeometry y="30" width="150" height="20" as="geometry" />
        </mxCell>
        <mxCell id="LnecdkdShnFeD8vXcbby-58" value="PK" style="shape=partialRectangle;overflow=hidden;connectable=0;fillColor=none;top=0;left=0;bottom=0;right=0;fontStyle=1;" parent="LnecdkdShnFeD8vXcbby-57" vertex="1">
          <mxGeometry width="30" height="20" as="geometry">
            <mxRectangle width="30" height="20" as="alternateBounds" />
          </mxGeometry>
        </mxCell>
        <mxCell id="LnecdkdShnFeD8vXcbby-59" value="id" style="shape=partialRectangle;overflow=hidden;connectable=0;fillColor=none;top=0;left=0;bottom=0;right=0;align=left;spacingLeft=6;fontStyle=5;" parent="LnecdkdShnFeD8vXcbby-57" vertex="1">
          <mxGeometry x="30" width="120" height="20" as="geometry">
            <mxRectangle width="120" height="20" as="alternateBounds" />
          </mxGeometry>
        </mxCell>
        <mxCell id="LnecdkdShnFeD8vXcbby-60" value="" style="shape=partialRectangle;collapsible=0;dropTarget=0;pointerEvents=0;fillColor=none;points=[[0,0.5],[1,0.5]];portConstraint=eastwest;top=0;left=0;right=0;bottom=0;" parent="LnecdkdShnFeD8vXcbby-56" vertex="1">
          <mxGeometry y="50" width="150" height="20" as="geometry" />
        </mxCell>
        <mxCell id="LnecdkdShnFeD8vXcbby-61" value="" style="shape=partialRectangle;overflow=hidden;connectable=0;fillColor=none;top=0;left=0;bottom=0;right=0;" parent="LnecdkdShnFeD8vXcbby-60" vertex="1">
          <mxGeometry width="30" height="20" as="geometry">
            <mxRectangle width="30" height="20" as="alternateBounds" />
          </mxGeometry>
        </mxCell>
        <mxCell id="LnecdkdShnFeD8vXcbby-62" value="nom" style="shape=partialRectangle;overflow=hidden;connectable=0;fillColor=none;top=0;left=0;bottom=0;right=0;align=left;spacingLeft=6;" parent="LnecdkdShnFeD8vXcbby-60" vertex="1">
          <mxGeometry x="30" width="120" height="20" as="geometry">
            <mxRectangle width="120" height="20" as="alternateBounds" />
          </mxGeometry>
        </mxCell>
        <mxCell id="LnecdkdShnFeD8vXcbby-63" value="" style="fontSize=12;html=1;endArrow=ERmany;rounded=0;endSize=9;" parent="1" source="LnecdkdShnFeD8vXcbby-56" target="LnecdkdShnFeD8vXcbby-43" edge="1">
          <mxGeometry width="100" height="100" relative="1" as="geometry">
            <mxPoint x="285" y="630" as="sourcePoint" />
            <mxPoint x="279" y="670" as="targetPoint" />
          </mxGeometry>
        </mxCell>
        <mxCell id="LnecdkdShnFeD8vXcbby-64" value="Historique simple" style="shape=note;size=20;whiteSpace=wrap;html=1;align=left;" parent="1" vertex="1">
          <mxGeometry x="530" y="610" width="130" height="30" as="geometry" />
        </mxCell>
        <mxCell id="LnecdkdShnFeD8vXcbby-65" value="Mariage" style="shape=note;size=20;whiteSpace=wrap;html=1;align=left;" parent="1" vertex="1">
          <mxGeometry x="535" y="760" width="80" height="30" as="geometry" />
        </mxCell>
        <mxCell id="HyML6Q4OZXNhtHHROyyk-1" value="x" style="shape=table;startSize=30;container=1;collapsible=1;childLayout=tableLayout;fixedRows=1;rowLines=0;fontStyle=1;align=center;resizeLast=1;" parent="1" vertex="1">
          <mxGeometry x="280" y="360" width="150" height="70" as="geometry" />
        </mxCell>
        <mxCell id="HyML6Q4OZXNhtHHROyyk-2" value="" style="shape=partialRectangle;collapsible=0;dropTarget=0;pointerEvents=0;fillColor=none;points=[[0,0.5],[1,0.5]];portConstraint=eastwest;top=0;left=0;right=0;bottom=1;" parent="HyML6Q4OZXNhtHHROyyk-1" vertex="1">
          <mxGeometry y="30" width="150" height="20" as="geometry" />
        </mxCell>
        <mxCell id="HyML6Q4OZXNhtHHROyyk-3" value="PK" style="shape=partialRectangle;overflow=hidden;connectable=0;fillColor=#dae8fc;top=0;left=0;bottom=0;right=0;fontStyle=1;strokeColor=#6c8ebf;" parent="HyML6Q4OZXNhtHHROyyk-2" vertex="1">
          <mxGeometry width="30" height="20" as="geometry">
            <mxRectangle width="30" height="20" as="alternateBounds" />
          </mxGeometry>
        </mxCell>
        <mxCell id="HyML6Q4OZXNhtHHROyyk-4" value="id" style="shape=partialRectangle;overflow=hidden;connectable=0;fillColor=none;top=0;left=0;bottom=0;right=0;align=left;spacingLeft=6;fontStyle=5;" parent="HyML6Q4OZXNhtHHROyyk-2" vertex="1">
          <mxGeometry x="30" width="120" height="20" as="geometry">
            <mxRectangle width="120" height="20" as="alternateBounds" />
          </mxGeometry>
        </mxCell>
        <mxCell id="HyML6Q4OZXNhtHHROyyk-5" value="" style="shape=partialRectangle;collapsible=0;dropTarget=0;pointerEvents=0;fillColor=none;points=[[0,0.5],[1,0.5]];portConstraint=eastwest;top=0;left=0;right=0;bottom=0;" parent="HyML6Q4OZXNhtHHROyyk-1" vertex="1">
          <mxGeometry y="50" width="150" height="20" as="geometry" />
        </mxCell>
        <mxCell id="HyML6Q4OZXNhtHHROyyk-6" value="" style="shape=partialRectangle;overflow=hidden;connectable=0;fillColor=none;top=0;left=0;bottom=0;right=0;" parent="HyML6Q4OZXNhtHHROyyk-5" vertex="1">
          <mxGeometry width="30" height="20" as="geometry">
            <mxRectangle width="30" height="20" as="alternateBounds" />
          </mxGeometry>
        </mxCell>
        <mxCell id="HyML6Q4OZXNhtHHROyyk-7" value="" style="shape=partialRectangle;overflow=hidden;connectable=0;fillColor=none;top=0;left=0;bottom=0;right=0;align=left;spacingLeft=6;" parent="HyML6Q4OZXNhtHHROyyk-5" vertex="1">
          <mxGeometry x="30" width="120" height="20" as="geometry">
            <mxRectangle width="120" height="20" as="alternateBounds" />
          </mxGeometry>
        </mxCell>
        <mxCell id="HyML6Q4OZXNhtHHROyyk-8" value="y_extension" style="shape=table;startSize=30;container=1;collapsible=1;childLayout=tableLayout;fixedRows=1;rowLines=0;fontStyle=1;align=center;resizeLast=1;" parent="1" vertex="1">
          <mxGeometry x="160" y="460" width="150" height="70" as="geometry" />
        </mxCell>
        <mxCell id="HyML6Q4OZXNhtHHROyyk-9" value="" style="shape=partialRectangle;collapsible=0;dropTarget=0;pointerEvents=0;fillColor=none;points=[[0,0.5],[1,0.5]];portConstraint=eastwest;top=0;left=0;right=0;bottom=1;" parent="HyML6Q4OZXNhtHHROyyk-8" vertex="1">
          <mxGeometry y="30" width="150" height="20" as="geometry" />
        </mxCell>
        <mxCell id="HyML6Q4OZXNhtHHROyyk-10" value="PK,FK" style="shape=partialRectangle;overflow=hidden;connectable=0;fillColor=#dae8fc;top=0;left=0;bottom=0;right=0;fontStyle=1;strokeColor=#6c8ebf;" parent="HyML6Q4OZXNhtHHROyyk-9" vertex="1">
          <mxGeometry width="40" height="20" as="geometry">
            <mxRectangle width="40" height="20" as="alternateBounds" />
          </mxGeometry>
        </mxCell>
        <mxCell id="HyML6Q4OZXNhtHHROyyk-11" value="x_id" style="shape=partialRectangle;overflow=hidden;connectable=0;fillColor=none;top=0;left=0;bottom=0;right=0;align=left;spacingLeft=6;fontStyle=5;" parent="HyML6Q4OZXNhtHHROyyk-9" vertex="1">
          <mxGeometry x="40" width="110" height="20" as="geometry">
            <mxRectangle width="110" height="20" as="alternateBounds" />
          </mxGeometry>
        </mxCell>
        <mxCell id="HyML6Q4OZXNhtHHROyyk-12" value="" style="shape=partialRectangle;collapsible=0;dropTarget=0;pointerEvents=0;fillColor=none;points=[[0,0.5],[1,0.5]];portConstraint=eastwest;top=0;left=0;right=0;bottom=0;" parent="HyML6Q4OZXNhtHHROyyk-8" vertex="1">
          <mxGeometry y="50" width="150" height="20" as="geometry" />
        </mxCell>
        <mxCell id="HyML6Q4OZXNhtHHROyyk-13" value="" style="shape=partialRectangle;overflow=hidden;connectable=0;fillColor=none;top=0;left=0;bottom=0;right=0;" parent="HyML6Q4OZXNhtHHROyyk-12" vertex="1">
          <mxGeometry width="40" height="20" as="geometry">
            <mxRectangle width="40" height="20" as="alternateBounds" />
          </mxGeometry>
        </mxCell>
        <mxCell id="HyML6Q4OZXNhtHHROyyk-14" value="" style="shape=partialRectangle;overflow=hidden;connectable=0;fillColor=none;top=0;left=0;bottom=0;right=0;align=left;spacingLeft=6;" parent="HyML6Q4OZXNhtHHROyyk-12" vertex="1">
          <mxGeometry x="40" width="110" height="20" as="geometry">
            <mxRectangle width="110" height="20" as="alternateBounds" />
          </mxGeometry>
        </mxCell>
        <mxCell id="HyML6Q4OZXNhtHHROyyk-15" value="z_extension" style="shape=table;startSize=30;container=1;collapsible=1;childLayout=tableLayout;fixedRows=1;rowLines=0;fontStyle=1;align=center;resizeLast=1;" parent="1" vertex="1">
          <mxGeometry x="425" y="460" width="150" height="70" as="geometry" />
        </mxCell>
        <mxCell id="HyML6Q4OZXNhtHHROyyk-16" value="" style="shape=partialRectangle;collapsible=0;dropTarget=0;pointerEvents=0;fillColor=none;points=[[0,0.5],[1,0.5]];portConstraint=eastwest;top=0;left=0;right=0;bottom=1;" parent="HyML6Q4OZXNhtHHROyyk-15" vertex="1">
          <mxGeometry y="30" width="150" height="20" as="geometry" />
        </mxCell>
        <mxCell id="HyML6Q4OZXNhtHHROyyk-17" value="PK,FK" style="shape=partialRectangle;overflow=hidden;connectable=0;fillColor=#dae8fc;top=0;left=0;bottom=0;right=0;fontStyle=1;strokeColor=#6c8ebf;" parent="HyML6Q4OZXNhtHHROyyk-16" vertex="1">
          <mxGeometry width="45" height="20" as="geometry">
            <mxRectangle width="45" height="20" as="alternateBounds" />
          </mxGeometry>
        </mxCell>
        <mxCell id="HyML6Q4OZXNhtHHROyyk-18" value="x_id" style="shape=partialRectangle;overflow=hidden;connectable=0;fillColor=none;top=0;left=0;bottom=0;right=0;align=left;spacingLeft=6;fontStyle=5;" parent="HyML6Q4OZXNhtHHROyyk-16" vertex="1">
          <mxGeometry x="45" width="105" height="20" as="geometry">
            <mxRectangle width="105" height="20" as="alternateBounds" />
          </mxGeometry>
        </mxCell>
        <mxCell id="HyML6Q4OZXNhtHHROyyk-19" value="" style="shape=partialRectangle;collapsible=0;dropTarget=0;pointerEvents=0;fillColor=none;points=[[0,0.5],[1,0.5]];portConstraint=eastwest;top=0;left=0;right=0;bottom=0;" parent="HyML6Q4OZXNhtHHROyyk-15" vertex="1">
          <mxGeometry y="50" width="150" height="20" as="geometry" />
        </mxCell>
        <mxCell id="HyML6Q4OZXNhtHHROyyk-20" value="" style="shape=partialRectangle;overflow=hidden;connectable=0;fillColor=none;top=0;left=0;bottom=0;right=0;" parent="HyML6Q4OZXNhtHHROyyk-19" vertex="1">
          <mxGeometry width="45" height="20" as="geometry">
            <mxRectangle width="45" height="20" as="alternateBounds" />
          </mxGeometry>
        </mxCell>
        <mxCell id="HyML6Q4OZXNhtHHROyyk-21" value="" style="shape=partialRectangle;overflow=hidden;connectable=0;fillColor=none;top=0;left=0;bottom=0;right=0;align=left;spacingLeft=6;" parent="HyML6Q4OZXNhtHHROyyk-19" vertex="1">
          <mxGeometry x="45" width="105" height="20" as="geometry">
            <mxRectangle width="105" height="20" as="alternateBounds" />
          </mxGeometry>
        </mxCell>
        <mxCell id="DIna-RiifgD8x9qSvOeK-1" value="" style="endArrow=none;html=1;rounded=0;fillColor=#dae8fc;strokeColor=#6c8ebf;" parent="1" source="HyML6Q4OZXNhtHHROyyk-8" target="HyML6Q4OZXNhtHHROyyk-1" edge="1">
          <mxGeometry width="50" height="50" relative="1" as="geometry">
            <mxPoint x="100" y="420" as="sourcePoint" />
            <mxPoint x="180" y="350" as="targetPoint" />
          </mxGeometry>
        </mxCell>
        <mxCell id="DIna-RiifgD8x9qSvOeK-2" value="" style="endArrow=none;html=1;rounded=0;fillColor=#dae8fc;strokeColor=#6c8ebf;" parent="1" source="HyML6Q4OZXNhtHHROyyk-15" target="HyML6Q4OZXNhtHHROyyk-1" edge="1">
          <mxGeometry width="50" height="50" relative="1" as="geometry">
            <mxPoint x="70" y="390" as="sourcePoint" />
            <mxPoint x="150" y="320" as="targetPoint" />
          </mxGeometry>
        </mxCell>
        <mxCell id="DIna-RiifgD8x9qSvOeK-3" value="Extension" style="shape=note;size=20;whiteSpace=wrap;html=1;align=left;" parent="1" vertex="1">
          <mxGeometry x="525" y="370" width="100" height="30" as="geometry" />
        </mxCell>
      </root>
    </mxGraphModel>
  </diagram>
  <diagram id="VYcCX19N-S9Jh9h7yBrd" name="DW &amp; ETL">
    <mxGraphModel dx="1311" dy="772" grid="1" gridSize="10" guides="1" tooltips="1" connect="1" arrows="1" fold="1" page="1" pageScale="1" pageWidth="827" pageHeight="1169" math="0" shadow="0">
      <root>
        <mxCell id="0" />
        <mxCell id="1" parent="0" />
        <mxCell id="9Idp0rt7eE6I-beWs3yA-1" value="Division" style="shape=table;startSize=30;container=1;collapsible=1;childLayout=tableLayout;fixedRows=1;rowLines=0;fontStyle=1;align=center;resizeLast=1;" vertex="1" parent="1">
          <mxGeometry x="530" y="180" width="150" height="110" as="geometry" />
        </mxCell>
        <mxCell id="9Idp0rt7eE6I-beWs3yA-2" value="" style="shape=partialRectangle;collapsible=0;dropTarget=0;pointerEvents=0;fillColor=none;points=[[0,0.5],[1,0.5]];portConstraint=eastwest;top=0;left=0;right=0;bottom=1;" vertex="1" parent="9Idp0rt7eE6I-beWs3yA-1">
          <mxGeometry y="30" width="150" height="20" as="geometry" />
        </mxCell>
        <mxCell id="9Idp0rt7eE6I-beWs3yA-3" value="PK" style="shape=partialRectangle;overflow=hidden;connectable=0;fillColor=none;top=0;left=0;bottom=0;right=0;fontStyle=1;" vertex="1" parent="9Idp0rt7eE6I-beWs3yA-2">
          <mxGeometry width="30" height="20" as="geometry">
            <mxRectangle width="30" height="20" as="alternateBounds" />
          </mxGeometry>
        </mxCell>
        <mxCell id="9Idp0rt7eE6I-beWs3yA-4" value="division_id" style="shape=partialRectangle;overflow=hidden;connectable=0;fillColor=none;top=0;left=0;bottom=0;right=0;align=left;spacingLeft=6;fontStyle=5;" vertex="1" parent="9Idp0rt7eE6I-beWs3yA-2">
          <mxGeometry x="30" width="120" height="20" as="geometry">
            <mxRectangle width="120" height="20" as="alternateBounds" />
          </mxGeometry>
        </mxCell>
        <mxCell id="9Idp0rt7eE6I-beWs3yA-5" value="" style="shape=partialRectangle;collapsible=0;dropTarget=0;pointerEvents=0;fillColor=none;points=[[0,0.5],[1,0.5]];portConstraint=eastwest;top=0;left=0;right=0;bottom=0;" vertex="1" parent="9Idp0rt7eE6I-beWs3yA-1">
          <mxGeometry y="50" width="150" height="20" as="geometry" />
        </mxCell>
        <mxCell id="9Idp0rt7eE6I-beWs3yA-6" value="" style="shape=partialRectangle;overflow=hidden;connectable=0;fillColor=none;top=0;left=0;bottom=0;right=0;" vertex="1" parent="9Idp0rt7eE6I-beWs3yA-5">
          <mxGeometry width="30" height="20" as="geometry">
            <mxRectangle width="30" height="20" as="alternateBounds" />
          </mxGeometry>
        </mxCell>
        <mxCell id="9Idp0rt7eE6I-beWs3yA-7" value="region" style="shape=partialRectangle;overflow=hidden;connectable=0;fillColor=none;top=0;left=0;bottom=0;right=0;align=left;spacingLeft=6;" vertex="1" parent="9Idp0rt7eE6I-beWs3yA-5">
          <mxGeometry x="30" width="120" height="20" as="geometry">
            <mxRectangle width="120" height="20" as="alternateBounds" />
          </mxGeometry>
        </mxCell>
        <mxCell id="9Idp0rt7eE6I-beWs3yA-8" value="" style="shape=partialRectangle;collapsible=0;dropTarget=0;pointerEvents=0;fillColor=none;points=[[0,0.5],[1,0.5]];portConstraint=eastwest;top=0;left=0;right=0;bottom=0;" vertex="1" parent="9Idp0rt7eE6I-beWs3yA-1">
          <mxGeometry y="70" width="150" height="20" as="geometry" />
        </mxCell>
        <mxCell id="9Idp0rt7eE6I-beWs3yA-9" value="" style="shape=partialRectangle;overflow=hidden;connectable=0;fillColor=none;top=0;left=0;bottom=0;right=0;" vertex="1" parent="9Idp0rt7eE6I-beWs3yA-8">
          <mxGeometry width="30" height="20" as="geometry">
            <mxRectangle width="30" height="20" as="alternateBounds" />
          </mxGeometry>
        </mxCell>
        <mxCell id="9Idp0rt7eE6I-beWs3yA-10" value="state" style="shape=partialRectangle;overflow=hidden;connectable=0;fillColor=none;top=0;left=0;bottom=0;right=0;align=left;spacingLeft=6;" vertex="1" parent="9Idp0rt7eE6I-beWs3yA-8">
          <mxGeometry x="30" width="120" height="20" as="geometry">
            <mxRectangle width="120" height="20" as="alternateBounds" />
          </mxGeometry>
        </mxCell>
        <mxCell id="9Idp0rt7eE6I-beWs3yA-11" value="" style="shape=partialRectangle;collapsible=0;dropTarget=0;pointerEvents=0;fillColor=none;points=[[0,0.5],[1,0.5]];portConstraint=eastwest;top=0;left=0;right=0;bottom=0;" vertex="1" parent="9Idp0rt7eE6I-beWs3yA-1">
          <mxGeometry y="90" width="150" height="20" as="geometry" />
        </mxCell>
        <mxCell id="9Idp0rt7eE6I-beWs3yA-12" value="" style="shape=partialRectangle;overflow=hidden;connectable=0;fillColor=none;top=0;left=0;bottom=0;right=0;" vertex="1" parent="9Idp0rt7eE6I-beWs3yA-11">
          <mxGeometry width="30" height="20" as="geometry">
            <mxRectangle width="30" height="20" as="alternateBounds" />
          </mxGeometry>
        </mxCell>
        <mxCell id="9Idp0rt7eE6I-beWs3yA-13" value="city" style="shape=partialRectangle;overflow=hidden;connectable=0;fillColor=none;top=0;left=0;bottom=0;right=0;align=left;spacingLeft=6;" vertex="1" parent="9Idp0rt7eE6I-beWs3yA-11">
          <mxGeometry x="30" width="120" height="20" as="geometry">
            <mxRectangle width="120" height="20" as="alternateBounds" />
          </mxGeometry>
        </mxCell>
        <mxCell id="9Idp0rt7eE6I-beWs3yA-14" value="Product" style="shape=table;startSize=30;container=1;collapsible=1;childLayout=tableLayout;fixedRows=1;rowLines=0;fontStyle=1;align=center;resizeLast=1;" vertex="1" parent="1">
          <mxGeometry x="300" y="402" width="150" height="90" as="geometry" />
        </mxCell>
        <mxCell id="9Idp0rt7eE6I-beWs3yA-15" value="" style="shape=partialRectangle;collapsible=0;dropTarget=0;pointerEvents=0;fillColor=none;points=[[0,0.5],[1,0.5]];portConstraint=eastwest;top=0;left=0;right=0;bottom=1;" vertex="1" parent="9Idp0rt7eE6I-beWs3yA-14">
          <mxGeometry y="30" width="150" height="20" as="geometry" />
        </mxCell>
        <mxCell id="9Idp0rt7eE6I-beWs3yA-16" value="PK" style="shape=partialRectangle;overflow=hidden;connectable=0;fillColor=none;top=0;left=0;bottom=0;right=0;fontStyle=1;" vertex="1" parent="9Idp0rt7eE6I-beWs3yA-15">
          <mxGeometry width="30" height="20" as="geometry">
            <mxRectangle width="30" height="20" as="alternateBounds" />
          </mxGeometry>
        </mxCell>
        <mxCell id="9Idp0rt7eE6I-beWs3yA-17" value="product_id" style="shape=partialRectangle;overflow=hidden;connectable=0;fillColor=none;top=0;left=0;bottom=0;right=0;align=left;spacingLeft=6;fontStyle=5;" vertex="1" parent="9Idp0rt7eE6I-beWs3yA-15">
          <mxGeometry x="30" width="120" height="20" as="geometry">
            <mxRectangle width="120" height="20" as="alternateBounds" />
          </mxGeometry>
        </mxCell>
        <mxCell id="9Idp0rt7eE6I-beWs3yA-18" value="" style="shape=partialRectangle;collapsible=0;dropTarget=0;pointerEvents=0;fillColor=none;points=[[0,0.5],[1,0.5]];portConstraint=eastwest;top=0;left=0;right=0;bottom=0;" vertex="1" parent="9Idp0rt7eE6I-beWs3yA-14">
          <mxGeometry y="50" width="150" height="20" as="geometry" />
        </mxCell>
        <mxCell id="9Idp0rt7eE6I-beWs3yA-19" value="" style="shape=partialRectangle;overflow=hidden;connectable=0;fillColor=none;top=0;left=0;bottom=0;right=0;" vertex="1" parent="9Idp0rt7eE6I-beWs3yA-18">
          <mxGeometry width="30" height="20" as="geometry">
            <mxRectangle width="30" height="20" as="alternateBounds" />
          </mxGeometry>
        </mxCell>
        <mxCell id="9Idp0rt7eE6I-beWs3yA-20" value="category" style="shape=partialRectangle;overflow=hidden;connectable=0;fillColor=none;top=0;left=0;bottom=0;right=0;align=left;spacingLeft=6;" vertex="1" parent="9Idp0rt7eE6I-beWs3yA-18">
          <mxGeometry x="30" width="120" height="20" as="geometry">
            <mxRectangle width="120" height="20" as="alternateBounds" />
          </mxGeometry>
        </mxCell>
        <mxCell id="9Idp0rt7eE6I-beWs3yA-21" value="" style="shape=partialRectangle;collapsible=0;dropTarget=0;pointerEvents=0;fillColor=none;points=[[0,0.5],[1,0.5]];portConstraint=eastwest;top=0;left=0;right=0;bottom=0;" vertex="1" parent="9Idp0rt7eE6I-beWs3yA-14">
          <mxGeometry y="70" width="150" height="20" as="geometry" />
        </mxCell>
        <mxCell id="9Idp0rt7eE6I-beWs3yA-22" value="" style="shape=partialRectangle;overflow=hidden;connectable=0;fillColor=none;top=0;left=0;bottom=0;right=0;" vertex="1" parent="9Idp0rt7eE6I-beWs3yA-21">
          <mxGeometry width="30" height="20" as="geometry">
            <mxRectangle width="30" height="20" as="alternateBounds" />
          </mxGeometry>
        </mxCell>
        <mxCell id="9Idp0rt7eE6I-beWs3yA-23" value="sub category" style="shape=partialRectangle;overflow=hidden;connectable=0;fillColor=none;top=0;left=0;bottom=0;right=0;align=left;spacingLeft=6;" vertex="1" parent="9Idp0rt7eE6I-beWs3yA-21">
          <mxGeometry x="30" width="120" height="20" as="geometry">
            <mxRectangle width="120" height="20" as="alternateBounds" />
          </mxGeometry>
        </mxCell>
        <mxCell id="9Idp0rt7eE6I-beWs3yA-27" value="Customer" style="shape=table;startSize=30;container=1;collapsible=1;childLayout=tableLayout;fixedRows=1;rowLines=0;fontStyle=1;align=center;resizeLast=1;" vertex="1" parent="1">
          <mxGeometry x="80" y="180" width="150" height="110" as="geometry" />
        </mxCell>
        <mxCell id="9Idp0rt7eE6I-beWs3yA-28" value="" style="shape=partialRectangle;collapsible=0;dropTarget=0;pointerEvents=0;fillColor=none;points=[[0,0.5],[1,0.5]];portConstraint=eastwest;top=0;left=0;right=0;bottom=1;" vertex="1" parent="9Idp0rt7eE6I-beWs3yA-27">
          <mxGeometry y="30" width="150" height="20" as="geometry" />
        </mxCell>
        <mxCell id="9Idp0rt7eE6I-beWs3yA-29" value="PK" style="shape=partialRectangle;overflow=hidden;connectable=0;fillColor=none;top=0;left=0;bottom=0;right=0;fontStyle=1;" vertex="1" parent="9Idp0rt7eE6I-beWs3yA-28">
          <mxGeometry width="30" height="20" as="geometry">
            <mxRectangle width="30" height="20" as="alternateBounds" />
          </mxGeometry>
        </mxCell>
        <mxCell id="9Idp0rt7eE6I-beWs3yA-30" value="customer_id" style="shape=partialRectangle;overflow=hidden;connectable=0;fillColor=none;top=0;left=0;bottom=0;right=0;align=left;spacingLeft=6;fontStyle=5;" vertex="1" parent="9Idp0rt7eE6I-beWs3yA-28">
          <mxGeometry x="30" width="120" height="20" as="geometry">
            <mxRectangle width="120" height="20" as="alternateBounds" />
          </mxGeometry>
        </mxCell>
        <mxCell id="9Idp0rt7eE6I-beWs3yA-31" value="" style="shape=partialRectangle;collapsible=0;dropTarget=0;pointerEvents=0;fillColor=none;points=[[0,0.5],[1,0.5]];portConstraint=eastwest;top=0;left=0;right=0;bottom=0;" vertex="1" parent="9Idp0rt7eE6I-beWs3yA-27">
          <mxGeometry y="50" width="150" height="20" as="geometry" />
        </mxCell>
        <mxCell id="9Idp0rt7eE6I-beWs3yA-32" value="" style="shape=partialRectangle;overflow=hidden;connectable=0;fillColor=none;top=0;left=0;bottom=0;right=0;" vertex="1" parent="9Idp0rt7eE6I-beWs3yA-31">
          <mxGeometry width="30" height="20" as="geometry">
            <mxRectangle width="30" height="20" as="alternateBounds" />
          </mxGeometry>
        </mxCell>
        <mxCell id="9Idp0rt7eE6I-beWs3yA-33" value="name" style="shape=partialRectangle;overflow=hidden;connectable=0;fillColor=none;top=0;left=0;bottom=0;right=0;align=left;spacingLeft=6;" vertex="1" parent="9Idp0rt7eE6I-beWs3yA-31">
          <mxGeometry x="30" width="120" height="20" as="geometry">
            <mxRectangle width="120" height="20" as="alternateBounds" />
          </mxGeometry>
        </mxCell>
        <mxCell id="9Idp0rt7eE6I-beWs3yA-34" value="" style="shape=partialRectangle;collapsible=0;dropTarget=0;pointerEvents=0;fillColor=none;points=[[0,0.5],[1,0.5]];portConstraint=eastwest;top=0;left=0;right=0;bottom=0;" vertex="1" parent="9Idp0rt7eE6I-beWs3yA-27">
          <mxGeometry y="70" width="150" height="20" as="geometry" />
        </mxCell>
        <mxCell id="9Idp0rt7eE6I-beWs3yA-35" value="" style="shape=partialRectangle;overflow=hidden;connectable=0;fillColor=none;top=0;left=0;bottom=0;right=0;" vertex="1" parent="9Idp0rt7eE6I-beWs3yA-34">
          <mxGeometry width="30" height="20" as="geometry">
            <mxRectangle width="30" height="20" as="alternateBounds" />
          </mxGeometry>
        </mxCell>
        <mxCell id="9Idp0rt7eE6I-beWs3yA-36" value="gender" style="shape=partialRectangle;overflow=hidden;connectable=0;fillColor=none;top=0;left=0;bottom=0;right=0;align=left;spacingLeft=6;" vertex="1" parent="9Idp0rt7eE6I-beWs3yA-34">
          <mxGeometry x="30" width="120" height="20" as="geometry">
            <mxRectangle width="120" height="20" as="alternateBounds" />
          </mxGeometry>
        </mxCell>
        <mxCell id="9Idp0rt7eE6I-beWs3yA-37" value="" style="shape=partialRectangle;collapsible=0;dropTarget=0;pointerEvents=0;fillColor=none;points=[[0,0.5],[1,0.5]];portConstraint=eastwest;top=0;left=0;right=0;bottom=0;" vertex="1" parent="9Idp0rt7eE6I-beWs3yA-27">
          <mxGeometry y="90" width="150" height="20" as="geometry" />
        </mxCell>
        <mxCell id="9Idp0rt7eE6I-beWs3yA-38" value="" style="shape=partialRectangle;overflow=hidden;connectable=0;fillColor=none;top=0;left=0;bottom=0;right=0;" vertex="1" parent="9Idp0rt7eE6I-beWs3yA-37">
          <mxGeometry width="30" height="20" as="geometry">
            <mxRectangle width="30" height="20" as="alternateBounds" />
          </mxGeometry>
        </mxCell>
        <mxCell id="9Idp0rt7eE6I-beWs3yA-39" value="birthdate" style="shape=partialRectangle;overflow=hidden;connectable=0;fillColor=none;top=0;left=0;bottom=0;right=0;align=left;spacingLeft=6;" vertex="1" parent="9Idp0rt7eE6I-beWs3yA-37">
          <mxGeometry x="30" width="120" height="20" as="geometry">
            <mxRectangle width="120" height="20" as="alternateBounds" />
          </mxGeometry>
        </mxCell>
        <mxCell id="6Zzy0rH5HtDhyODWwomY-1" value="Order" style="shape=table;startSize=30;container=1;collapsible=1;childLayout=tableLayout;fixedRows=1;rowLines=0;fontStyle=1;align=center;resizeLast=1;" vertex="1" parent="1">
          <mxGeometry x="300" y="140" width="150" height="190" as="geometry" />
        </mxCell>
        <mxCell id="6Zzy0rH5HtDhyODWwomY-2" value="" style="shape=partialRectangle;collapsible=0;dropTarget=0;pointerEvents=0;fillColor=none;points=[[0,0.5],[1,0.5]];portConstraint=eastwest;top=0;left=0;right=0;bottom=1;" vertex="1" parent="6Zzy0rH5HtDhyODWwomY-1">
          <mxGeometry y="30" width="150" height="20" as="geometry" />
        </mxCell>
        <mxCell id="6Zzy0rH5HtDhyODWwomY-3" value="PK" style="shape=partialRectangle;overflow=hidden;connectable=0;fillColor=none;top=0;left=0;bottom=0;right=0;fontStyle=1;" vertex="1" parent="6Zzy0rH5HtDhyODWwomY-2">
          <mxGeometry width="30" height="20" as="geometry">
            <mxRectangle width="30" height="20" as="alternateBounds" />
          </mxGeometry>
        </mxCell>
        <mxCell id="6Zzy0rH5HtDhyODWwomY-4" value="order_id" style="shape=partialRectangle;overflow=hidden;connectable=0;fillColor=none;top=0;left=0;bottom=0;right=0;align=left;spacingLeft=6;fontStyle=5;" vertex="1" parent="6Zzy0rH5HtDhyODWwomY-2">
          <mxGeometry x="30" width="120" height="20" as="geometry">
            <mxRectangle width="120" height="20" as="alternateBounds" />
          </mxGeometry>
        </mxCell>
        <mxCell id="6Zzy0rH5HtDhyODWwomY-5" value="" style="shape=partialRectangle;collapsible=0;dropTarget=0;pointerEvents=0;fillColor=none;points=[[0,0.5],[1,0.5]];portConstraint=eastwest;top=0;left=0;right=0;bottom=0;" vertex="1" parent="6Zzy0rH5HtDhyODWwomY-1">
          <mxGeometry y="50" width="150" height="20" as="geometry" />
        </mxCell>
        <mxCell id="6Zzy0rH5HtDhyODWwomY-6" value="FK" style="shape=partialRectangle;overflow=hidden;connectable=0;fillColor=none;top=0;left=0;bottom=0;right=0;" vertex="1" parent="6Zzy0rH5HtDhyODWwomY-5">
          <mxGeometry width="30" height="20" as="geometry">
            <mxRectangle width="30" height="20" as="alternateBounds" />
          </mxGeometry>
        </mxCell>
        <mxCell id="6Zzy0rH5HtDhyODWwomY-7" value="customer_id" style="shape=partialRectangle;overflow=hidden;connectable=0;fillColor=none;top=0;left=0;bottom=0;right=0;align=left;spacingLeft=6;" vertex="1" parent="6Zzy0rH5HtDhyODWwomY-5">
          <mxGeometry x="30" width="120" height="20" as="geometry">
            <mxRectangle width="120" height="20" as="alternateBounds" />
          </mxGeometry>
        </mxCell>
        <mxCell id="6Zzy0rH5HtDhyODWwomY-8" value="" style="shape=partialRectangle;collapsible=0;dropTarget=0;pointerEvents=0;fillColor=none;points=[[0,0.5],[1,0.5]];portConstraint=eastwest;top=0;left=0;right=0;bottom=0;" vertex="1" parent="6Zzy0rH5HtDhyODWwomY-1">
          <mxGeometry y="70" width="150" height="20" as="geometry" />
        </mxCell>
        <mxCell id="6Zzy0rH5HtDhyODWwomY-9" value="FK" style="shape=partialRectangle;overflow=hidden;connectable=0;fillColor=none;top=0;left=0;bottom=0;right=0;" vertex="1" parent="6Zzy0rH5HtDhyODWwomY-8">
          <mxGeometry width="30" height="20" as="geometry">
            <mxRectangle width="30" height="20" as="alternateBounds" />
          </mxGeometry>
        </mxCell>
        <mxCell id="6Zzy0rH5HtDhyODWwomY-10" value="product_id" style="shape=partialRectangle;overflow=hidden;connectable=0;fillColor=none;top=0;left=0;bottom=0;right=0;align=left;spacingLeft=6;" vertex="1" parent="6Zzy0rH5HtDhyODWwomY-8">
          <mxGeometry x="30" width="120" height="20" as="geometry">
            <mxRectangle width="120" height="20" as="alternateBounds" />
          </mxGeometry>
        </mxCell>
        <mxCell id="6Zzy0rH5HtDhyODWwomY-11" value="" style="shape=partialRectangle;collapsible=0;dropTarget=0;pointerEvents=0;fillColor=none;points=[[0,0.5],[1,0.5]];portConstraint=eastwest;top=0;left=0;right=0;bottom=0;" vertex="1" parent="6Zzy0rH5HtDhyODWwomY-1">
          <mxGeometry y="90" width="150" height="20" as="geometry" />
        </mxCell>
        <mxCell id="6Zzy0rH5HtDhyODWwomY-12" value="FK" style="shape=partialRectangle;overflow=hidden;connectable=0;fillColor=none;top=0;left=0;bottom=0;right=0;" vertex="1" parent="6Zzy0rH5HtDhyODWwomY-11">
          <mxGeometry width="30" height="20" as="geometry">
            <mxRectangle width="30" height="20" as="alternateBounds" />
          </mxGeometry>
        </mxCell>
        <mxCell id="6Zzy0rH5HtDhyODWwomY-13" value="division_id" style="shape=partialRectangle;overflow=hidden;connectable=0;fillColor=none;top=0;left=0;bottom=0;right=0;align=left;spacingLeft=6;" vertex="1" parent="6Zzy0rH5HtDhyODWwomY-11">
          <mxGeometry x="30" width="120" height="20" as="geometry">
            <mxRectangle width="120" height="20" as="alternateBounds" />
          </mxGeometry>
        </mxCell>
        <mxCell id="6Zzy0rH5HtDhyODWwomY-14" value="" style="shape=partialRectangle;collapsible=0;dropTarget=0;pointerEvents=0;fillColor=none;points=[[0,0.5],[1,0.5]];portConstraint=eastwest;top=0;left=0;right=0;bottom=0;" vertex="1" parent="6Zzy0rH5HtDhyODWwomY-1">
          <mxGeometry y="110" width="150" height="20" as="geometry" />
        </mxCell>
        <mxCell id="6Zzy0rH5HtDhyODWwomY-15" value="" style="shape=partialRectangle;overflow=hidden;connectable=0;fillColor=none;top=0;left=0;bottom=0;right=0;" vertex="1" parent="6Zzy0rH5HtDhyODWwomY-14">
          <mxGeometry width="30" height="20" as="geometry">
            <mxRectangle width="30" height="20" as="alternateBounds" />
          </mxGeometry>
        </mxCell>
        <mxCell id="6Zzy0rH5HtDhyODWwomY-16" value="date" style="shape=partialRectangle;overflow=hidden;connectable=0;fillColor=none;top=0;left=0;bottom=0;right=0;align=left;spacingLeft=6;" vertex="1" parent="6Zzy0rH5HtDhyODWwomY-14">
          <mxGeometry x="30" width="120" height="20" as="geometry">
            <mxRectangle width="120" height="20" as="alternateBounds" />
          </mxGeometry>
        </mxCell>
        <mxCell id="6Zzy0rH5HtDhyODWwomY-17" value="" style="shape=partialRectangle;collapsible=0;dropTarget=0;pointerEvents=0;fillColor=none;points=[[0,0.5],[1,0.5]];portConstraint=eastwest;top=0;left=0;right=0;bottom=0;" vertex="1" parent="6Zzy0rH5HtDhyODWwomY-1">
          <mxGeometry y="130" width="150" height="20" as="geometry" />
        </mxCell>
        <mxCell id="6Zzy0rH5HtDhyODWwomY-18" value="" style="shape=partialRectangle;overflow=hidden;connectable=0;fillColor=none;top=0;left=0;bottom=0;right=0;" vertex="1" parent="6Zzy0rH5HtDhyODWwomY-17">
          <mxGeometry width="30" height="20" as="geometry">
            <mxRectangle width="30" height="20" as="alternateBounds" />
          </mxGeometry>
        </mxCell>
        <mxCell id="6Zzy0rH5HtDhyODWwomY-19" value="sales" style="shape=partialRectangle;overflow=hidden;connectable=0;fillColor=none;top=0;left=0;bottom=0;right=0;align=left;spacingLeft=6;" vertex="1" parent="6Zzy0rH5HtDhyODWwomY-17">
          <mxGeometry x="30" width="120" height="20" as="geometry">
            <mxRectangle width="120" height="20" as="alternateBounds" />
          </mxGeometry>
        </mxCell>
        <mxCell id="6Zzy0rH5HtDhyODWwomY-20" value="" style="shape=partialRectangle;collapsible=0;dropTarget=0;pointerEvents=0;fillColor=none;points=[[0,0.5],[1,0.5]];portConstraint=eastwest;top=0;left=0;right=0;bottom=0;" vertex="1" parent="6Zzy0rH5HtDhyODWwomY-1">
          <mxGeometry y="150" width="150" height="20" as="geometry" />
        </mxCell>
        <mxCell id="6Zzy0rH5HtDhyODWwomY-21" value="" style="shape=partialRectangle;overflow=hidden;connectable=0;fillColor=none;top=0;left=0;bottom=0;right=0;" vertex="1" parent="6Zzy0rH5HtDhyODWwomY-20">
          <mxGeometry width="30" height="20" as="geometry">
            <mxRectangle width="30" height="20" as="alternateBounds" />
          </mxGeometry>
        </mxCell>
        <mxCell id="6Zzy0rH5HtDhyODWwomY-22" value="discount" style="shape=partialRectangle;overflow=hidden;connectable=0;fillColor=none;top=0;left=0;bottom=0;right=0;align=left;spacingLeft=6;" vertex="1" parent="6Zzy0rH5HtDhyODWwomY-20">
          <mxGeometry x="30" width="120" height="20" as="geometry">
            <mxRectangle width="120" height="20" as="alternateBounds" />
          </mxGeometry>
        </mxCell>
        <mxCell id="6Zzy0rH5HtDhyODWwomY-45" value="" style="shape=partialRectangle;collapsible=0;dropTarget=0;pointerEvents=0;fillColor=none;points=[[0,0.5],[1,0.5]];portConstraint=eastwest;top=0;left=0;right=0;bottom=0;" vertex="1" parent="6Zzy0rH5HtDhyODWwomY-1">
          <mxGeometry y="170" width="150" height="20" as="geometry" />
        </mxCell>
        <mxCell id="6Zzy0rH5HtDhyODWwomY-46" value="" style="shape=partialRectangle;overflow=hidden;connectable=0;fillColor=none;top=0;left=0;bottom=0;right=0;" vertex="1" parent="6Zzy0rH5HtDhyODWwomY-45">
          <mxGeometry width="30" height="20" as="geometry">
            <mxRectangle width="30" height="20" as="alternateBounds" />
          </mxGeometry>
        </mxCell>
        <mxCell id="6Zzy0rH5HtDhyODWwomY-47" value="profit" style="shape=partialRectangle;overflow=hidden;connectable=0;fillColor=none;top=0;left=0;bottom=0;right=0;align=left;spacingLeft=6;" vertex="1" parent="6Zzy0rH5HtDhyODWwomY-45">
          <mxGeometry x="30" width="120" height="20" as="geometry">
            <mxRectangle width="120" height="20" as="alternateBounds" />
          </mxGeometry>
        </mxCell>
        <mxCell id="qn9-aT4wAyqranrWkmCp-1" value="" style="fontSize=12;html=1;endArrow=ERmany;rounded=0;endSize=9;" edge="1" parent="1" source="9Idp0rt7eE6I-beWs3yA-14" target="6Zzy0rH5HtDhyODWwomY-1">
          <mxGeometry width="100" height="100" relative="1" as="geometry">
            <mxPoint x="170" y="92" as="sourcePoint" />
            <mxPoint x="240" y="22" as="targetPoint" />
          </mxGeometry>
        </mxCell>
        <mxCell id="qn9-aT4wAyqranrWkmCp-2" value="" style="fontSize=12;html=1;endArrow=ERmany;rounded=0;endSize=9;" edge="1" parent="1" source="9Idp0rt7eE6I-beWs3yA-1" target="6Zzy0rH5HtDhyODWwomY-1">
          <mxGeometry width="100" height="100" relative="1" as="geometry">
            <mxPoint x="268" y="42" as="sourcePoint" />
            <mxPoint x="352" y="157" as="targetPoint" />
          </mxGeometry>
        </mxCell>
        <mxCell id="qn9-aT4wAyqranrWkmCp-3" value="" style="fontSize=12;html=1;endArrow=ERmany;rounded=0;endSize=9;" edge="1" parent="1" source="9Idp0rt7eE6I-beWs3yA-27" target="6Zzy0rH5HtDhyODWwomY-1">
          <mxGeometry width="100" height="100" relative="1" as="geometry">
            <mxPoint x="262" y="42" as="sourcePoint" />
            <mxPoint x="328" y="150" as="targetPoint" />
          </mxGeometry>
        </mxCell>
      </root>
    </mxGraphModel>
  </diagram>
</mxfile>
